<?xml version="1.0" encoding="utf-8"?>
<!-- Generator: Adobe Illustrator 27.5.0, SVG Export Plug-In . SVG Version: 6.00 Build 0)  -->
<svg version="1.1" xmlns="http://www.w3.org/2000/svg" xmlns:xlink="http://www.w3.org/1999/xlink" x="0px" y="0px"
	 viewBox="0 0 500 500" style="enable-background:new 0 0 500 500;" xml:space="preserve">
<g id="BACKGROUND">
	<rect style="fill:#13A7F1;" width="500" height="500"/>
</g>
<g id="OBJECTS">
	<g>
		<defs>
			<rect id="SVGID_1_" width="500" height="500"/>
		</defs>
		<clipPath id="SVGID_00000174586822036186347710000003113948906629896881_">
			<use xlink:href="#SVGID_1_"  style="overflow:visible;"/>
		</clipPath>
		<g style="clip-path:url(#SVGID_00000174586822036186347710000003113948906629896881_);">
			<g>
				<g>
					<path style="fill:#754D2B;" d="M369.431,97.645c-0.297-0.841-1.334-1.102-1.63-1.141l0-0.001
						c-0.07-0.009-0.162-0.047-0.252-0.104c-1.713-1.246-4.036-1.886-6.881-1.886c-8.788,0-20.143,5.955-23.413,7.78l-0.436,0.243
						l0.243,0.436c0.891,1.602,3.827,7.402,4.197,14.774l0.038,0.762l0.683-0.339l0.332-0.165c0.684-0.339,1.367-0.679,2.053-1.022
						c1.76-0.996,4.151-2.232,6.755-3.493c3.094-1.668,5.843-3.285,8.338-4.909c-0.268,0.174-0.531,0.35-0.802,0.522l-0.031,0.02
						l-0.028,0.024c-0.665,0.572-1.767,1.74-3.044,3.094c-2.382,2.525-5.644,5.983-7.894,7.465
						c-1.021,0.673-3.285,3.095-3.277,4.627c-0.238,0.967-4.888,14.39-8.603,23.349l-0.152,0.152l0.089,0.227
						c-0.079,8.007,1.347,14.678,2.133,16.48l0.111,0.255l0.276,0.04c1.172,0.168,2.305,0.253,3.367,0.253
						c3.883,0,7.031-1.122,9.358-3.335c5.88-5.59,5.178-16.49,4.822-19.697c-0.684-6.337,2.273-11.762,6.21-18.194
						c3.271-5.358,3.361-5.625,3.204-9.517l-0.041-1.112c-0.12-3.382,0.467-6.597,0.828-8.213l0.305-1.365l-1.1,0.856
						c-1.763,1.381-3.683,2.739-5.704,4.053c2.494-1.625,4.736-3.258,6.814-4.957l0.086-0.07l0.048-0.1
						c0.023-0.049,0.032-0.072,0.046-0.093C369.444,100.138,369.721,98.476,369.431,97.645z"/>
					<path style="fill:#754D2B;" d="M206.482,201.349c0.876-0.692,1.447-1.71,1.846-2.519c1.162-2.375,1.855-5.058,2.06-7.976
						l0.084-1.19l-0.907,0.757c-1.655,1.413-3.504,2.13-5.495,2.13c-0.316,0-0.641-0.018-0.965-0.053l-0.5-0.055l-0.051,0.501
						c-0.286,2.803-0.81,5.764-1.56,8.816l-0.132,0.538l0.549,0.076c0.494,0.068,0.972,0.103,1.419,0.103
						C204.317,202.477,205.546,202.098,206.482,201.349z"/>
					<path style="fill:#754D2B;" d="M328.925,331.677c0.859-1.165,1.712-2.341,2.4-3.614c0.641-1.188,1.134-2.455,1.463-3.764
						c-3.401-0.217-6.862-0.447-10.046-1.663c-0.859-0.328-1.749-0.745-2.406-1.406c-0.547-0.55-0.811-1.439-1.184-2.123
						c-0.966-1.765-1.776-3.616-2.404-5.527c0,0-0.292-0.888-0.292-0.888l-0.577,0.735c-1.736,2.213-5.684,5.924-12.619,5.924
						c-4.438,0-9.4-1.547-14.748-4.598c-4.405-2.513-9.03-4.937-13.502-7.281c-16.52-8.659-33.602-17.612-42.067-32.483
						c-8.611-15.128-12.287-29.317-13.468-34.715l-0.592-2.706c8.746,11.912,17.454,17.178,19.918,18.51l1.078,0.583l-0.237-0.766
						c0.073,0.23,0.146,0.47,0.22,0.692l0.025,0.076l0.047,0.064c0.034,0.046,0.051,0.074,0.057,0.096
						c0.106,0.275,2.389,5.881,13.516,17.63c5.038,5.327,12.571,8.174,19.396,10.363c7.277,2.333,14.798,3.932,22.346,5.092
						c11.884,1.826,23.988,1.056,33.134-7.843c5.719-5.565,8.758-12.8,10.054-20.559c0.513-3.076,1.534-5.911,1.933-9.062
						c0.288-2.275,0.576-4.549,0.864-6.824l0.121-0.953l-0.85,0.448c-3.328,1.753-6.709,3.635-10.05,5.594l-0.143,0.084
						l-0.064,0.153c-3.336,7.912-11.061,10.069-11.778,10.254c-11.074-0.118-28.147-10.764-31.462-12.901l-0.061-0.039l-0.07-0.02
						c-8.452-2.465-15.183-5.144-21.183-8.433c-2.02-1.101-3.956-2.307-5.754-3.587c-1.951-1.373-3.706-2.826-5.217-4.321
						c-1.724-1.691-3.154-3.459-4.251-5.256c-0.959-1.596-2.087-3.752-2.303-6.274l0.199-0.154l-0.035-0.283
						c-0.093-0.737-0.115-1.466-0.066-2.167l0.076-1.097l-0.025,0.019l0.035-0.179c0.264-1.371,1.71-8.495,4.207-14.146
						c0.325-0.735,0.818-1.53,1.465-2.364l0.249-0.32l-0.262-0.31l-9.354-11.055l1.718-14.318l0.038-0.314l-0.267-0.169
						c-2.092-1.321-20.556-13.436-24.595-31.867c-2.234-10.194,0.222-20.588,7.302-30.894c7.587-11.046,18.002-16.647,30.955-16.647
						c16.061,0,30.635,8.57,33.393,10.288l0.333,0.208l0.281-0.275c1.853-1.814,11.678-10.865,23.163-10.865
						c0.343,0,0.687,0.008,1.032,0.025c5.441,0.259,10.496,2.589,15.023,6.924l0.718-0.695c-4.57-5.152-15.125-12.512-20.069-15.685
						c-0.116-0.075-0.194-0.19-0.218-0.32c-0.04-0.181,0.02-0.319,0.077-0.406c1.082-1.557,4.493-3.267,9.595-4.804l1.194-0.36
						l-1.111-0.565c-7.215-3.667-17.903-5.472-18.355-5.547c-0.148-0.025-0.277-0.119-0.355-0.26
						c-0.072-0.13-0.079-0.287-0.018-0.43c1.923-4.542,11.851-9.537,16.031-11.473l1.222-0.566l-1.296-0.368
						c-7.697-2.188-16.544-3.298-26.295-3.298c-23.13,0-43.865,6.216-44.737,6.48l-0.038,0.012l-0.036,0.018l-52.53,25.72
						l-0.359,0.176l0.092,0.389c0.857,3.615,1.401,11.168,1.548,13.397l0.025,0.387l0.381,0.072c0.584,0.11,1.149,0.226,1.708,0.345
						c-0.588-0.125-1.184-0.246-1.801-0.361l-0.259-0.048c0,0-0.186,0.186-0.189,0.189c-0.062,0.059-0.179,0.139-0.343,0.138
						l-0.052-0.003c-1.841-0.153-3.631-0.23-5.32-0.23c-10.523,0-18.07,2.96-22.432,8.799c-1.486,1.988-2.613,4.338-3.351,6.985
						l-0.38,1.362l1.151-0.818c0.225-0.161,0.468-0.3,0.699-0.454c-0.569,0.381-1.137,0.766-1.675,1.185l-0.193,0.15v0.196
						c-2.399,11.135,1.904,23.782,2.793,26.207c2.427,7.479,5.905,14.713,10.885,20.839c3.331,4.098,7.339,7.677,11.937,10.297
						c2.66,1.515,5.532,2.746,8.523,3.433c0.412,0.094,1.308,0.113,1.611,0.348c0.634,0.491,0.562,2.384,0.647,3.138
						c0.141,1.242,0.232,2.489,0.275,3.738c0.172,4.995-0.432,10.018-1.795,14.828c-0.273,0.962-0.576,1.915-0.909,2.858
						c-1.687,4.775-3.315,9.526-5.537,14.11l-0.594,1.225l1.246-0.55c2.81-1.24,6.076-1.573,7.013-1.645
						c0,0,0.049-0.004,0.052-0.004c0.191,0,0.352,0.099,0.44,0.251c0.097,0.168,0.091,0.365-0.015,0.526
						c-2.456,3.757-1.914,8.795-1.372,11.464l0.196,0.968l0.664-0.731c3.318-3.654,9.7-3.696,9.97-3.696
						c0.185,0,0.351,0.099,0.444,0.265c1.711,3.122,3.615,6.164,5.658,9.035l0.087,0.122l0.139,0.054
						c0.18,0.07,0.302,0.238,0.312,0.43l0.008,0.149l0.058,0.08l-0.308,2.874c-2.807,26.199-23.075,63.628-25.377,67.81
						c-0.252,0.457,0.133,1.062-0.088,1.795c-0.48,1.592-1.89,3.288-2.722,4.736c-0.276,0.48-0.562,1.007-0.489,1.556
						c0.077,0.579,0.531,1.025,0.959,1.422c5.179,4.811,10.373,9.636,16.092,13.791c13.16,9.562,28.729,15.308,44.501,19.295
						c7.739,1.956,16.059,4.401,24.024,5.096c3.418,0.298,6.294,1.351,9.622,2.321c4.015,1.17,8.108,2.07,12.243,2.691
						c1.548,0.233,2.387-0.315,3.572-1.198c2.526-1.882,4.835-4.13,7.136-6.272C315.185,346.647,323.042,339.653,328.925,331.677z
						 M317.991,282.013L317.991,282.013C317.99,282.013,317.99,282.013,317.991,282.013c-0.002-0.004-0.004-0.009-0.005-0.013
						C317.987,282.004,317.989,282.009,317.991,282.013z M235.566,231.723c-0.021,0.264-0.04,0.531-0.048,0.823
						C235.526,232.254,235.545,231.986,235.566,231.723z M235.516,233.082c-0.001,0.219-0.005,0.432,0,0.665
						C235.51,233.514,235.515,233.302,235.516,233.082z M237.483,227.049c0.054-0.079,0.107-0.158,0.163-0.236
						C237.59,226.891,237.537,226.97,237.483,227.049z M235.778,230.455c0.073-0.262,0.163-0.527,0.269-0.794
						C235.942,229.928,235.85,230.193,235.778,230.455z M236.162,229.384c0.105-0.243,0.217-0.487,0.345-0.732
						C236.38,228.897,236.266,229.141,236.162,229.384z M236.722,228.263c0.081-0.144,0.165-0.287,0.253-0.431
						C236.888,227.976,236.803,228.119,236.722,228.263z M241.069,222.842c-0.004,0.004-0.007,0.008-0.011,0.011
						C241.061,222.85,241.065,222.846,241.069,222.842z M235.735,230.63c-0.07,0.284-0.127,0.565-0.153,0.84
						C235.609,231.195,235.665,230.914,235.735,230.63z M174.664,149.679L174.664,149.679L174.664,149.679L174.664,149.679z
						 M220.686,119.286c-0.004,3.153-1.213,6.27-3.312,8.621C219.472,125.556,220.681,122.439,220.686,119.286z M217.146,128.173
						c-0.121,0.128-0.239,0.238-0.356,0.338C216.907,128.41,217.024,128.302,217.146,128.173z M216.264,128.875
						c-0.017,0.009-0.034,0.014-0.051,0.022C216.23,128.889,216.247,128.884,216.264,128.875z M216.634,128.635
						c-0.057,0.043-0.113,0.083-0.169,0.119C216.521,128.717,216.577,128.679,216.634,128.635z M191.11,113.032
						c5.718,0.725,10.568,2.728,14.023,5.794c1.473,1.308,2.756,2.856,3.997,4.353c1.592,1.921,3.238,3.907,5.288,5.385
						c0.31,0.223,0.674,0.465,1.083,0.495l0.019,0.001l0.068,0.002c0.105,0,0.21-0.02,0.316-0.046l-0.653,0.198l0.484,0.58
						c1.098,1.316,1.72,3.062,1.706,4.792c-0.009,2.088-0.993,4.106-2.631,5.401c-0.72,0.575-1.623,1.02-2.763,1.362
						c-0.461,0.149-0.941,0.252-1.405,0.351c-0.574,0.123-1.117,0.239-1.619,0.432c-0.997,0.364-1.673,1.262-2.279,2.151
						c-0.58,0.873-1.055,1.818-1.415,2.813c-0.562,1.547-1.075,3.882-0.332,6.218c0.094,0.314,0.22,0.591,0.353,0.884
						c0.082,0.18,0.168,0.369,0.253,0.584c0.045,0.124,0.12,0.396,0.059,0.656c-0.048,0.207-0.171,0.411-0.349,0.577
						c-0.317,0.291-0.722,0.494-1.309,0.656c-0.491,0.142-0.997,0.239-1.508,0.289c-0.263,0.025-0.533,0.038-0.8,0.038
						c-0.275,0-0.55-0.013-0.822-0.04l-0.874-0.706c-0.625-0.505-1.08-1.503-1.413-2.232l-0.027-0.06
						c-1.148-2.514-1.426-5.537-0.781-8.511c0.744-3.432,2.598-6.819,5.669-10.356c0.325-0.374,0.77-0.887,0.798-1.552
						c0.017-0.404-0.128-0.771-0.234-1.038c-2.915-7.344-7.555-14.061-13.42-19.424l-0.116-0.106
						C190.686,112.994,190.899,113.005,191.11,113.032z M189.954,112.922c-1.166-0.111-2.342-0.174-3.502-0.174
						c-1.864,0-3.705,0.146-5.504,0.427c1.805-0.284,3.646-0.439,5.505-0.439C187.614,112.736,188.786,112.811,189.954,112.922z
						 M235.568,235.06c-0.012-0.209-0.017-0.403-0.026-0.604C235.551,234.656,235.556,234.851,235.568,235.06z M235.672,236.465
						c-0.016-0.181-0.027-0.353-0.041-0.53C235.645,236.112,235.656,236.284,235.672,236.465z M247.463,217.329
						c-1.056,0.8-2.551,1.982-4.126,3.379c1.962-1.746,3.731-3.093,4.508-3.669L247.463,217.329z M241.653,222.269
						c0.172-0.167,0.345-0.332,0.517-0.494C241.997,221.937,241.825,222.103,241.653,222.269z M242.543,221.428
						c0.243-0.225,0.486-0.446,0.725-0.659C243.028,220.983,242.786,221.205,242.543,221.428z M201.909,103.013
						c-0.479-0.115-0.959-0.23-1.458-0.338C200.95,102.783,201.43,102.897,201.909,103.013z M209.735,105.59
						c-0.176-0.077-0.347-0.16-0.526-0.235C209.388,105.43,209.559,105.512,209.735,105.59z M208.427,105.045
						c-0.268-0.106-0.53-0.216-0.804-0.318C207.897,104.828,208.16,104.938,208.427,105.045z M206.922,104.481
						c-0.318-0.112-0.631-0.227-0.957-0.334C206.292,104.254,206.605,104.369,206.922,104.481z M205.299,103.943
						c-0.356-0.111-0.709-0.224-1.076-0.329C204.59,103.719,204.943,103.832,205.299,103.943z M203.623,103.454
						c-0.407-0.111-0.812-0.224-1.234-0.329C202.811,103.23,203.216,103.342,203.623,103.454z M170.129,116.845
						c-0.46,0.254-0.915,0.515-1.359,0.791C169.214,117.36,169.669,117.099,170.129,116.845z M180.531,113.253
						c-0.729,0.123-1.453,0.263-2.166,0.431C179.079,113.515,179.803,113.377,180.531,113.253z M177.549,113.901
						c-0.574,0.15-1.147,0.305-1.708,0.484C176.403,114.205,176.975,114.051,177.549,113.901z M174.899,114.714
						c-0.509,0.18-1.016,0.362-1.513,0.566C173.883,115.076,174.39,114.894,174.899,114.714z M172.443,115.694
						c-0.48,0.215-0.958,0.435-1.424,0.673C171.486,116.129,171.963,115.909,172.443,115.694z M235.983,239.248
						c0.009,0.068,0.017,0.135,0.026,0.203C236,239.383,235.992,239.316,235.983,239.248z M235.779,237.535
						c0.014,0.135,0.027,0.266,0.042,0.402C235.806,237.801,235.794,237.67,235.779,237.535z"/>
				</g>
				<g>
					<path style="fill:#0B1011;" d="M335.283,313.938c0.017-0.045,0.52-1.342-0.285-2.783c-1.017-1.822-3.706-3.158-7.776-3.863
						c-5.85-1.014-8.854-1.567-10.433-1.939c0.368,4.245,1.322,8.862,3.465,13.176c0.909,1.829,2.667,3.161,4.704,3.561
						c1.853,0.365,4.626,0.809,7.784,0.989c1.287-2.981,2.17-5.951,2.463-8.839C335.215,314.136,335.241,314.034,335.283,313.938z"
						/>
					<path style="fill:#E6E4CB;" d="M442.564,503h-0.7l-69.06,0.01h-0.43l-0.06-0.43c-1.08-7.62-2.1-17.52-1.13-27.67
						c0.58-6.09,1.88-12.27,4.3-18.11c0.02-0.05,0.03-0.1,0.03-0.15c0.01-0.1,0.32-4.06,0.73-9.24c0.67-8.53,1.61-20.34,1.9-23.55
						v-0.06l0.02-0.07c0.55-1.48,13.25-36.69-0.59-71.6c-0.08-0.19-0.26-0.32-0.47-0.32c-0.06,0-0.12,0.02-0.18,0.04
						c-0.26,0.1-0.38,0.39-0.28,0.65c14.02,35.37,0.68,70.65,0.54,71c-0.01,0.05-0.02,0.09-0.03,0.14l-0.03,0.41l-0.02,0.21
						l-0.17,0.14c-3.04,2.41-6.61,5.18-10.4,7.42c-2.64,1.56-5.25,2.75-7.8,3.55c3.35,1.03,13.39,4.51,16.58,10.06l0.07,0.13
						l-0.01,0.15c-0.39,4.97-0.72,9.14-0.82,10.44v0.05c-0.01,0.09-0.02,0.16-0.02,0.21l-0.01,0.08l-0.03,0.07
						c-0.01,0.02-0.02,0.04-0.02,0.06c-6.43,15.71-4.9,33.68-3.19,45.82l0.08,0.57h-0.57l-181.19,0.03h-0.52l0.02-0.51l1.2-33.56
						v-0.27l0.24-0.14l38.38-23.21c-11.59-1.73-22.72-5.87-32.71-12.22l-0.05-0.03l-0.02-0.01l-0.02-0.02
						c-1.97-1.38-3.3-2.51-4.07-3.22l-0.18-0.17l0.02-0.24c0.46-5.25,0.7-10.64,0.74-16.47c0.03-6.65-0.27-13.29-0.9-19.75
						c-0.7-7.07-1.78-13.45-3.28-19.51c-0.9-3.51-1.84-6.61-2.88-9.49c-1.19-3.21-2.52-6.26-3.99-9.09
						c-0.93-2.17-2.03-4.34-3.47-6.83c-1.34-2.3-2.76-4.47-4.22-6.44c-3.3-4.48-6.9-8.21-10.7-11.07c-0.09-0.06-0.19-0.1-0.3-0.1
						c-0.16,0-0.3,0.08-0.4,0.2c-0.17,0.22-0.12,0.54,0.11,0.71c3.73,2.79,7.27,6.43,10.53,10.82c1.44,1.94,2.84,4.08,4.18,6.35
						c1.39,2.39,2.56,4.66,3.46,6.73l0.02,0.06c1.44,2.76,2.78,5.77,3.97,8.96c1.04,2.84,1.98,5.91,2.88,9.39
						c1.52,6.02,2.61,12.36,3.34,19.38c0.65,6.44,0.97,13.06,0.96,19.68c-0.01,7.2-0.33,13.63-0.96,19.67v0.03l-0.92,32.88
						l-0.2,3.42l0.11-0.07l-0.02,0.92l-0.91,32.74l-0.02,0.48h-0.48l-101.74,0.02c-9.9-0.04-25.94-0.26-29.59-0.74l-0.49-0.07
						l0.06-0.5c7.21-55.37,27.24-94.59,43.33-126.12c1.51-2.95,2.98-5.83,4.4-8.65c16.15-32.01,50.11-39.83,51.42-40.12
						c0.04-0.01,0.07-0.03,0.11-0.04l0.14-0.06l0.15,0.04l142.8,35.6c0.04,0.01,0.08,0.02,0.12,0.02c0.08,0,0.16-0.02,0.23-0.06
						c1.54-0.81,37.86-19.92,56.12-36.13l0.19-0.17l0.25,0.05c15.19,3.29,34.93,10.05,42.61,23.62
						c8.05,14.21,18.38,55.83,27.49,92.55c0.43,1.72,0.85,3.43,1.27,5.13c2.44,9.81,4.81,19.28,7.05,27.83
						c2.88,11,5.55,20.46,7.87,27.09L442.564,503z"/>
					<path style="fill:#0B1011;" d="M201.972,287.278c-3.264,0.849-19.656,5.372-21.886,11.005c-0.426,1.077-0.29,2.114,0.414,3.171
						c1.605,2.408,6.596,6.224,10.498,9l0.464,0.33l0.268-0.501c1.269-2.376,5.799-11.01,10.825-22.318l0.422-0.948L201.972,287.278
						z"/>
					<g>
						<path style="fill:#5C6A6D;" d="M341.441,286.108l-9.669-5.824l-0.379-0.228l-0.273,0.349l-0.06,0.079l-0.051,0.067
							c-1.978,2.501-3.984,4.515-6.132,6.155c-2.27,1.732-4.828,3.068-7.603,3.969l-0.382,0.124l0.039,0.4
							c0.042,0.429-0.021,1.192-0.136,2.505c-0.19,2.166-0.509,5.792-0.331,9.847l0.016,0.375l0.365,0.089
							c0.83,0.202,3.302,0.729,10.526,1.981c3.358,0.582,5.835,1.594,7.362,3.006l1.338,1.238c0.055,0.245,0.092,0.494,0.106,0.748
							l0.004,0.077l0.027,0.072c0.559,1.493,0.198,2.807,0.074,3.173c-0.092,0.272-0.113,0.572-0.132,0.837
							c-0.009,0.127-0.017,0.253-0.035,0.367c-0.064,0.413-0.138,0.825-0.222,1.234c-0.166,0.809-0.377,1.646-0.628,2.488
							c-0.237,0.794-0.516,1.615-0.831,2.44c-0.034,0.089-0.066,0.182-0.099,0.275c-0.094,0.267-0.191,0.543-0.326,0.726
							c-0.056,0.077-0.117,0.147-0.176,0.217c-0.199,0.235-0.424,0.502-0.52,0.909c-0.036,0.154-0.061,0.298-0.084,0.437
							c-0.044,0.261-0.079,0.466-0.192,0.688c-0.105,0.204-0.206,0.41-0.307,0.616c-0.109,0.222-0.218,0.444-0.332,0.664
							c-0.428,0.827-0.897,1.678-1.395,2.528c-0.948,1.619-2.035,3.296-3.23,4.984c-2.177,3.076-4.668,6.152-7.615,9.404
							c-2.429,2.68-5.122,5.416-8.004,8.132c-1.758,1.657-3.594,3.314-5.457,4.925l-3.704,3.202l4.275-2.388
							c16.801-9.384,46.307-26.982,55.152-39.407l0.088-0.124l0.004-0.152C362.567,315.218,362.447,296.535,341.441,286.108z"/>
						<path style="fill:#5C6A6D;" d="M255.951,346.954c-2.012-0.933-4.093-1.898-6.241-2.672c-2.926-1.053-5.831-2.542-8.641-3.983
							c-1.037-0.531-2.067-1.06-3.093-1.564c-3.733-1.835-7.5-3.754-11.195-5.704c-6.938-3.663-13.65-7.443-19.949-11.236
							c-5.93-3.571-11.003-6.841-15.507-9.996c-0.262-0.184-1.747-1.367-3.32-2.621c-6.257-4.987-6.306-4.987-6.579-4.987l-0.153,0
							l-0.13,0.087c-0.115-0.084-0.229-0.169-0.343-0.254l-1.341-2.368c-0.697-1.23-0.798-2.489-0.303-3.742
							c2.657-6.713,21.892-11.464,24.077-11.983l0.243-0.058l0.1-0.229c5.991-13.747,10.184-25.77,12.463-35.733l0.133-0.581
							l-0.595-0.03c-0.714-0.036-2.243-0.096-4.462-0.096c-13.561,0-48.669,2.165-81.696,22.222
							C92.331,293.951,98.323,359.368,99.9,372.254l0.199,1.623l0.743-1.457c1.015-1.99,2.018-3.96,2.991-5.889
							c16.397-32.508,50.654-40.328,52.104-40.645l0.087-0.019l0.075-0.048c0.083-0.053,0.175-0.08,0.268-0.08
							c0.039,0,0.078,0.005,0.116,0.015l115.157,28.71l0.296-0.953c-3.901-1.463-7.935-3.065-11.988-4.763
							C258.599,348.182,257.253,347.558,255.951,346.954z"/>
					</g>
				</g>
				<path style="fill:none;stroke:#0B1011;stroke-linecap:round;stroke-linejoin:round;stroke-miterlimit:10;" d="M331.612,144.96
					c0.287-1.02,0.433-2.092,0.433-3.191c0-1.541-0.294-3.042-0.875-4.461c-1.824-4.458-6.116-7.339-10.935-7.339
					c-4.931,0-9.379,3.104-11.071,7.724c-0.484,1.31-0.729,2.68-0.729,4.076c0,1.297,0.211,2.58,0.628,3.81
					c1.629,4.784,6.12,8,11.172,8C325.514,153.579,330.193,150.035,331.612,144.96z M321.848,148.578
					c-4.243,0-7.683-3.44-7.683-7.683c0-4.243,3.44-7.683,7.683-7.683c4.243,0,7.683,3.44,7.683,7.683
					C329.531,145.138,326.091,148.578,321.848,148.578z"/>
				<g>
					<g>
						<path style="fill:#E2C597;" d="M314.846,241.417l0.858-0.465c-0.524-0.013-1.049-0.026-1.572-0.043
							C314.37,241.079,314.608,241.248,314.846,241.417z"/>
						<path style="fill:#E2C597;" d="M354.472,215.545c-0.317-3.206-1.04-6.367-1.979-9.445c-1.633-5.353-3.925-10.508-6.582-15.428
							l-0.051-0.094l-0.103-0.028c-0.942-0.256-1.947-0.386-2.988-0.386c-1.921,0-3.581,0.432-4.657,0.795l-0.061,0.036
							c-0.74,0.447-1.498,0.879-2.232,1.296l-0.353,0.201c-2.347,1.333-4.896,2.677-7.626,3.477
							c-0.02,0.006-0.038,0.009-0.056,0.009c-0.08,0-0.15-0.053-0.174-0.132c-0.03-0.098,0.025-0.198,0.124-0.228
							c2.704-0.842,5.19-2.211,7.475-3.564l0.798-0.477c2.089-1.247,4.249-2.536,6.061-4.151c0.415-0.364,0.806-0.756,1.162-1.162
							l0.08-0.092l-0.023-0.12c-0.031-0.165-0.014-0.323,0.052-0.471c2.379-5.174,2.78-9.617,1.19-13.204
							c-1.058-2.387-2.806-3.941-4.086-4.824c0,0-0.064-0.044-0.081-0.044c-0.257-0.136-0.539-0.274-0.839-0.408
							c-1.652-0.743-3.535-1.119-5.597-1.119c-0.743,0-1.51,0.05-2.278,0.15c-2.492,0.33-5.095,1.145-7.737,2.423
							c-2.691,1.307-4.804,2.946-6.28,4.873c-0.143,0.186-0.359,0.293-0.59,0.293c-0.166,0-0.324-0.055-0.458-0.158
							c-0.163-0.122-0.266-0.298-0.293-0.497c-0.027-0.198,0.026-0.394,0.148-0.552c1.658-2.08,3.972-3.819,6.888-5.176
							c2.787-1.297,5.536-2.107,8.173-2.408c0.715-0.08,1.431-0.12,2.128-0.12c0.917,0,1.82,0.07,2.685,0.209l0.416,0.067
							l-0.141-0.397c-1.229-3.463-2.831-12.461-1.897-21.862l0.087-0.872l-0.534,0.695l-0.5,0.651l-0.042,0.054l-0.008,0.068
							c-0.085,0.708-0.218,1.386-0.394,2.013c-1.221,4.365-4.544,7.814-8.891,9.228l-1.163,0.378l1.218,0.109
							c1.239,0.11,2.549,0.288,4.247,0.576c0.066,0.011,0.123,0.047,0.162,0.102c0.039,0.054,0.054,0.121,0.043,0.187
							c-0.02,0.121-0.124,0.208-0.246,0.208c0,0-0.044,0.112-0.078,0.115l0.017-0.123c-1.18-0.234-2.737-0.525-4.307-0.703
							c-1.011-0.131-2.025-0.198-2.794-0.242c-0.48,0.041-0.883,0.061-1.269,0.061c-0.578,0-1.178-0.044-1.835-0.133
							c-1.124,0.012-2.011,0.05-2.83,0.117c-1.723,0.146-3.095,0.356-4.319,0.66c1.216-0.353,2.55-0.595,4.306-0.795
							c0.07-0.008,0.142-0.013,0.214-0.018c0.066-0.005,0.132-0.009,0.197-0.016l1.183-0.117l-1.13-0.37
							c-4.028-1.318-7.249-4.502-8.616-8.516c-0.049-0.144-0.089-0.29-0.13-0.436l-0.05-0.176l-0.039-0.136l-0.137-0.036
							c-2.387-0.633-5.582-1.468-6.806-1.787l6.778-5.018l0.071-0.053l0.022-0.086c0.128-0.496,0.26-0.929,0.406-1.323
							c1.942-5.306,7.051-8.87,12.713-8.87c5.533,0,10.461,3.307,12.555,8.426c0.379,0.927,0.657,1.939,0.825,3.008l0.009,0.053
							l0.03,0.045l0.807,1.227l0.355,0.54l0.101-0.638c0.538-3.967,1.524-7.606,2.932-10.821c4.714-10.781,0.623-21.389-1.354-25.45
							l-0.027-0.054l-0.056-0.052l-0.054-0.041c-5.336-6.791-11.513-10.401-18.358-10.73c-0.34-0.016-0.679-0.024-1.016-0.024
							c-12.572,0-23.166,10.955-23.272,11.066c-0.047,0.049-0.112,0.077-0.181,0.077c-0.049,0-0.097-0.014-0.138-0.041
							c-0.157-0.104-16.02-10.445-33.541-10.447c-12.903-0.001-23.263,5.56-30.797,16.527c-7.037,10.244-9.482,20.571-7.265,30.693
							c4.263,19.469,24.543,31.756,24.747,31.877c0.085,0.051,0.132,0.147,0.12,0.245l-1.73,14.418l-0.013,0.108l0.07,0.083
							l9.096,10.751l0.189,0.223l0.191-0.221c3.78-4.376,10.432-8.542,13.116-10.131l0.222-0.131l-0.139-0.218
							c-0.693-1.09-1.258-2.225-1.681-3.372c-1.118-3.005-1.344-6.261-0.637-9.17c0.763-3.179,2.543-5.929,5.012-7.745
							c3.001-2.24,6.433-2.813,8.784-2.899c0.256-0.011,0.51-0.016,0.764-0.016c2.62,0,5.414,0.579,8.304,1.721
							c2.495,0.988,4.978,2.327,8.051,4.342c0.346,0.227,0.443,0.693,0.216,1.038c-0.139,0.212-0.374,0.339-0.628,0.339
							c-0.146,0-0.288-0.043-0.41-0.123c-2.932-1.97-5.392-3.333-7.75-4.296c-2.791-1.136-5.473-1.711-7.97-1.711
							c-0.178,0-0.355,0.003-0.533,0.009c-3.073,0.077-5.954,0.989-8.111,2.566c-2.232,1.6-3.929,4.167-4.653,7.041
							c-0.688,2.694-0.507,5.734,0.51,8.56c0.41,1.153,0.974,2.297,1.678,3.398l0.047,0.073l0.082,0.028
							c0.043,0.015,0.102,0.046,0.137,0.11c0.013,0.022,0.028,0.061,0.022,0.14l-0.007,0.088l0.05,0.073
							c0.825,1.196,1.798,2.289,2.892,3.249c2.137,1.904,4.744,3.1,7.684,4.358c2.741,1.152,5.591,2.132,8.472,2.914
							c0.19,0.051,0.302,0.247,0.251,0.437c-0.042,0.155-0.183,0.263-0.344,0.263c-0.03,0-0.06-0.004-0.089-0.012
							c-2.921-0.759-5.814-1.719-8.598-2.853c-2.314-0.962-4.558-1.943-6.561-3.337l-0.032-0.022l-0.037-0.011
							c-2.065-0.634-5.083-1.39-7.729-1.39c-0.68,0-1.31,0.05-1.874,0.15l-0.054,0.01l-0.045,0.031
							c-3.699,2.569-6.483,4.962-8.274,7.113l-0.037,0.045l-0.014,0.057c-0.015,0.061-0.039,0.105-0.073,0.134
							c-0.012,0.01-0.038,0.022-0.062,0.033l-0.056,0.025l-0.038,0.048c-0.682,0.86-1.197,1.68-1.532,2.439
							c-2.708,6.128-4.166,13.954-4.227,14.284c-0.006,0.031-0.023,0.065-0.053,0.104l-0.039,0.051l-0.01,0.064
							c-0.314,2.084,0.047,4.45,1.015,6.664c0.888,2.036,2.284,3.951,4.149,5.694c3.025,2.801,7.067,5.06,12.358,6.907
							c4.073,1.405,8.622,2.471,13.908,3.259c4.408,0.657,9.069,1.089,14.251,1.321c2.816,0.131,5.703,0.195,8.825,0.195
							c1.747,0,3.597-0.021,5.497-0.063c2.194-0.043,4.538-0.127,7.166-0.255c0.206-0.009,0.411-0.018,0.616-0.027l-0.538,0.292
							c10.654,0.26,21.587-0.44,31.181-5.013c0.773-0.369,1.542-0.766,2.194-1.323c0.894-0.764,1.52-1.786,2.131-2.791
							c1.255-2.062,2.526-4.162,3.136-6.498C355.131,222.319,354.776,218.626,354.472,215.545z M310.105,122.569
							c2.572-1.281,5.556-1.957,8.632-1.957c0.548,0,1.105,0.022,1.655,0.064c3.76,0.3,7.16,1.553,9.831,3.623
							c1.422,1.104,2.629,2.487,3.491,4.001c0.86,1.501,1.437,3.249,1.671,5.056c0.018,0.138-0.078,0.264-0.215,0.282
							c-0.002,0-0.004,0-0.006,0c-0.155,0-0.259-0.093-0.275-0.215c-0.372-3.469-2.159-6.684-4.904-8.829
							c-2.592-2.058-5.917-3.325-9.616-3.662c-0.622-0.056-1.253-0.084-1.875-0.084c-2.959,0-5.839,0.637-8.328,1.841
							c-3.248,1.548-5.841,4.248-7.115,7.407l-0.007,0.005c-0.001,0-0.001,0-0.003-0.001
							C304.279,126.902,306.854,124.161,310.105,122.569z M259.916,226.02c0.025,0.062,0.024,0.13-0.002,0.191
							c-0.026,0.061-0.075,0.109-0.137,0.134c-0.03,0.012-0.061,0.018-0.093,0.018c-0.103,0-0.194-0.062-0.232-0.157
							c-0.476-1.396-0.627-2.987-0.454-4.745c0.165-1.68,0.577-3.276,0.958-4.615c-0.278,1.276-0.624,2.952-0.701,4.634
							C259.174,223.195,259.397,224.723,259.916,226.02z M276.947,229.416c0.007,0.066-0.012,0.132-0.054,0.184
							c-0.042,0.052-0.102,0.085-0.168,0.092l-0.027,0.001c-0.128,0-0.234-0.096-0.248-0.223c-0.267-3.983,0.206-7.916,1.405-11.702
							C276.847,221.529,276.529,225.555,276.947,229.416z M294.765,122.233c0.226,0.815,0.496,1.602,0.803,2.342l0.161,0.385
							c0.262,0.623,0.533,1.267,0.689,1.955c0.191,0.86,0.19,1.762,0.189,2.487c-0.006,0.743-0.039,1.533-0.104,2.484
							c-0.047,0.687-0.105,1.371-0.164,2.054c-0.081,0.949-0.164,1.931-0.215,2.894c-0.347,6.595,0.914,13.247,3.645,19.238
							c0.057,0.125,0.002,0.274-0.124,0.331c-0.033,0.015-0.068,0.023-0.103,0.023c-0.098,0-0.187-0.057-0.228-0.146
							c-2.686-6.088-3.878-12.816-3.447-19.461c0.063-0.974,0.159-1.956,0.251-2.906c0.066-0.682,0.133-1.362,0.188-2.041
							l0.034-0.504c0.101-1.476,0.205-3.001-0.055-4.418c-0.143-0.677-0.4-1.31-0.672-1.979l-0.144-0.357
							c-0.299-0.747-0.561-1.542-0.778-2.362c-0.418-1.605-0.635-3.259-0.645-4.915
							C294.092,118.991,294.329,120.638,294.765,122.233z M259.471,124.398c2.572-1.281,5.556-1.957,8.632-1.957
							c0.549,0,1.106,0.022,1.655,0.064c3.76,0.3,7.16,1.553,9.831,3.623c1.422,1.104,2.629,2.487,3.491,4.001
							c0.86,1.501,1.437,3.249,1.671,5.056c0.018,0.138-0.078,0.264-0.215,0.282c-0.002,0-0.004,0-0.006,0
							c-0.155,0-0.259-0.092-0.275-0.215c-0.372-3.469-2.159-6.685-4.904-8.829c-2.591-2.058-5.917-3.325-9.616-3.662
							c-0.622-0.056-1.253-0.084-1.875-0.084c-2.959,0-5.839,0.637-8.328,1.841c-3.248,1.548-5.841,4.248-7.114,7.407l-0.007,0.005
							c-0.001,0-0.001,0-0.003-0.001C253.645,128.732,256.22,125.991,259.471,124.398z M282.893,146.303l-0.025,0.118
							c-0.06,0.283-0.127,0.564-0.205,0.841c-1.22,4.365-4.544,7.814-8.891,9.228l-1.163,0.378l1.218,0.109
							c1.24,0.111,2.549,0.288,4.246,0.576c0.136,0.023,0.228,0.152,0.205,0.288c-0.021,0.121-0.124,0.208-0.246,0.208l-0.038,0.11
							c-0.008,0-0.012,0.006-0.02,0.006c-0.003,0-0.006,0-0.009,0l0.016-0.121c-1.19-0.236-2.747-0.527-4.316-0.705
							c-1.011-0.131-2.024-0.198-2.793-0.242c-0.48,0.041-0.884,0.061-1.271,0.061c-0.579,0-1.18-0.044-1.837-0.133
							c-1.123,0.012-2.01,0.05-2.829,0.117c-1.723,0.146-3.095,0.356-4.319,0.66l-0.017,0.004c0,0-0.006,0-0.007-0.006
							c1.239-0.351,2.573-0.593,4.33-0.794c0.07-0.008,0.141-0.012,0.212-0.017c0.066-0.005,0.132-0.009,0.198-0.016l1.182-0.117
							l-1.129-0.369c-4.028-1.319-7.249-4.502-8.616-8.517c-0.049-0.144-0.089-0.29-0.13-0.436l-0.049-0.175l-0.039-0.136
							l-0.137-0.036c-2.387-0.634-5.582-1.468-6.805-1.787l6.778-5.018l0.071-0.053l0.022-0.086c0.128-0.496,0.26-0.929,0.406-1.323
							c1.942-5.306,7.051-8.87,12.714-8.87c5.533,0,10.461,3.307,12.554,8.426c0.178,0.434,0.34,0.915,0.496,1.471l0.022,0.079
							l0.065,0.051l4.918,3.847l-4.655,2.327L282.893,146.303z M286.142,162.518c-0.22,0-0.44,0.003-0.661,0.009l-0.004,0.125
							c-0.001,0-0.002,0-0.004,0v-0.125c-0.136,0-0.246-0.107-0.25-0.243c-0.004-0.138,0.105-0.253,0.243-0.257
							c5.462,0.018,10.871,1.812,15.238,5.052C296.466,164.141,291.297,162.518,286.142,162.518z M301.703,234.28
							c-0.005,0.135-0.115,0.24-0.249,0.24v0.122c-0.002,0-0.004,0.001-0.005,0.001l-0.005-0.123
							c-0.067-0.003-0.128-0.031-0.174-0.08c-0.045-0.049-0.069-0.113-0.066-0.18c0.372-5.22,0.163-10.485-0.623-15.658
							C301.543,223.758,301.915,229.034,301.703,234.28z M305.921,189.959c-1.088,0.881-3.136,1.379-4.175,1.534
							c-1.559,0.207-3.317,0.317-5.081,0.317c-9.983,0-20.809-3.242-21.254-12.339c0.075-2.671,2.605-3.881,4.748-4.1
							c0.527-0.082,1.04-0.122,1.538-0.122c4.258,0,7.332,2.887,10.587,5.943c2.06,1.935,4.19,3.935,6.694,5.223
							c2.191,1.127,4.287,1.713,6.228,1.74c0.565,0.008,0.9,0.4,1.016,0.734C306.363,189.292,306.25,189.692,305.921,189.959z
							 M347.552,220.471c0.145,0.879,0.23,1.831,0.278,3.05l-0.409,0.222c0.017-0.991,0.006-2.103-0.124-3.235
							c-0.206-1.813-0.712-3.346-1.505-4.557C346.665,217.123,347.253,218.646,347.552,220.471z M314.354,164.699
							c0.967-0.646,2.09-1.217,3.536-1.799c1.297-0.515,2.624-0.94,3.751-1.287c0.893-0.269,1.94-0.557,3.034-0.557
							c0.328,0,0.65,0.027,0.958,0.079c0.136,0.023,0.228,0.153,0.205,0.289c-0.021,0.121-0.124,0.208-0.246,0.208l-0.039,0.113
							c-0.007,0-0.009,0.005-0.016,0.005c-0.004,0-0.009,0-0.014,0l0.015-0.123c-0.324-0.067-0.674-0.101-1.04-0.101
							c-0.962,0-1.932,0.229-2.754,0.453c-1.131,0.311-2.461,0.692-3.762,1.163c-1.45,0.532-2.579,1.063-3.553,1.672
							c-1.161,0.71-2.151,1.58-2.94,2.586l-0.009,0.006c-0.002,0-0.003-0.001-0.004-0.002
							C312.236,166.357,313.205,165.451,314.354,164.699z M311.124,188.375c0.063-0.347,0.333-0.787,0.89-0.882
							c1.914-0.327,3.894-1.229,5.885-2.681c2.275-1.659,4.07-3.964,5.807-6.194c3.052-3.918,5.935-7.619,11.068-7.623
							c0.147-0.007,0.281-0.011,0.416-0.011c2.082,0,4.468,0.879,4.925,3.347c0.316,2.972-0.56,5.669-2.606,7.999
							c-4.578,5.211-14.387,7.762-21.563,7.927l-0.061,0c-1.29,0-3.189-0.228-4.297-0.871
							C311.222,189.174,311.048,188.796,311.124,188.375z M314.741,204.14c-0.778-0.459-1.582-0.934-2.331-1.488
							c-1.212-0.891-2.693-2.379-2.872-4.418c0.22,2.133,1.923,3.646,2.919,4.359c0.73,0.53,1.535,0.993,2.314,1.441
							c0.761,0.438,1.548,0.89,2.278,1.411c2.977,2.057,5.517,4.787,7.349,7.898c1.842,3.081,2.993,6.636,3.331,10.281
							c0.343,3.621-0.112,7.341-1.316,10.758c-0.035,0.1-0.13,0.167-0.236,0.167c-0.028,0-0.056-0.005-0.083-0.014
							c-0.13-0.046-0.198-0.189-0.153-0.319c1.221-3.346,1.709-6.995,1.411-10.559c-0.294-3.6-1.393-7.122-3.177-10.185
							c-1.78-3.103-4.27-5.839-7.2-7.913C316.265,205.04,315.49,204.583,314.741,204.14z M338.593,228.529
							c-0.124,0-0.231-0.093-0.247-0.217c-0.072-0.752-0.134-1.482-0.195-2.212c-0.117-1.386-0.238-2.82-0.415-4.21
							c-0.247-1.833-0.718-4.162-2.178-5.942c0.686,0.76,1.23,1.695,1.627,2.768c0.333,0.889,0.589,1.884,0.805,3.132
							c0.233,1.405,0.408,2.83,0.576,4.208c0.089,0.729,0.178,1.459,0.276,2.189c0.009,0.064-0.01,0.126-0.047,0.178l-0.193,0.105
							L338.593,228.529z"/>
					</g>
					<path style="fill:#E2C597;" d="M329.628,241.863c-1.138,0.676-2.291,1.199-3.735,1.691c-2.408,0.822-4.947,1.238-7.491,1.238
						c-4.255,0-8.701-1.153-12.859-3.334l-0.056-0.029l-0.063,0.001c-0.746,0.007-1.494,0.01-2.24,0.01
						c-3.233,0-6.198-0.067-9.066-0.204c-5.197-0.239-9.872-0.679-14.293-1.344c-5.309-0.799-9.88-1.876-13.975-3.294
						c-5.277-1.852-9.173-4.017-12.261-6.811l-0.355,0.351c0.567,0.642,1.082,1.188,1.574,1.669
						c1.508,1.488,3.261,2.936,5.208,4.302c1.796,1.274,3.729,2.476,5.747,3.572c6.884,3.762,14.926,6.796,25.309,9.548
						c1.948,0.5,4.255,1.079,6.607,1.588l1.655,0.374l1.631,0.439l3.28,0.89l6.561,1.78c0.376,0.094,0.745,0.198,1.112,0.302
						c0.712,0.201,1.447,0.408,2.164,0.518c0.991,0.166,2.079,0.251,3.232,0.251l0.107,0c2.324-0.025,4.526-0.449,6.545-1.259
						c0.987-0.419,1.929-0.918,2.968-1.572l2.913-1.75c3.985-2.353,7.734-4.443,11.459-6.389l0.054-0.028l0.021-0.03
						c0.056-0.043,0.111-0.074,0.18-0.101l0.1-0.04c0,0,0.047-0.019,0.074-0.035c0.014-0.005,0.032-0.01,0.052-0.015
						c1.471-0.366,2.871-0.621,3.987-1.755c2.074-2.108,3.29-5.036,3.321-7.993c-1.195,1.137-2.962,1.358-4.589,1.634
						c-2.606,0.442-5.154,1.166-7.697,1.888c-0.996,0.283-2,0.569-2.917,1.051c-0.717,0.377-1.368,0.867-2.016,1.354
						C331.086,240.927,330.36,241.427,329.628,241.863z M322.774,250.869c0.024,0.063,0.021,0.13-0.006,0.191
						c-0.027,0.061-0.077,0.107-0.14,0.131c-1.941,0.63-3.955,0.947-6,0.947c-1.451,0-2.895-0.162-4.292-0.482
						c1.11,0.185,2.247,0.286,3.382,0.286c2.324,0,4.589-0.41,6.733-1.219c0.029-0.011,0.058-0.016,0.088-0.016
						C322.644,250.707,322.738,250.772,322.774,250.869z"/>
				</g>
				<path style="fill:none;stroke:#0B1011;stroke-linecap:round;stroke-linejoin:round;stroke-miterlimit:10;" d="M269.601,131.799
					c-4.931,0-9.38,3.104-11.071,7.724c-0.484,1.311-0.729,2.681-0.729,4.076c0,1.298,0.211,2.579,0.627,3.809
					c1.629,4.785,6.12,8.001,11.173,8.001c5.28,0,9.958-3.545,11.377-8.619c0.288-1.021,0.433-2.094,0.433-3.191
					c0-1.54-0.294-3.042-0.876-4.461C278.712,134.679,274.42,131.799,269.601,131.799z M271.214,150.407
					c-4.243,0-7.683-3.44-7.683-7.683c0-4.243,3.44-7.683,7.683-7.683c4.243,0,7.683,3.44,7.683,7.683
					C278.897,146.968,275.457,150.407,271.214,150.407z"/>
				<path style="fill:#B47742;" d="M287.499,143.089c-0.765-1.656-1.447-3.351-2.042-5.076c-0.283-0.819-0.69-1.722-0.812-2.582
					c-0.079-0.554,0.022-1.086-0.096-1.652c-0.403-1.932-1.354-3.693-2.692-5.137c-2.503-2.698-6.064-4.241-9.557-5.194
					c-1.323-0.361-2.669-0.641-4.026-0.84c-0.496-0.073-1.127-0.25-1.632-0.191c-5.018,0.587-9.964,2.628-12.829,6.974
					c-0.509,0.772-0.905,1.601-1.235,2.46l-0.033-0.095c-0.855,1.997-1.299,4.164-1.443,6.337c-0.015,0.094-0.031,0.188-0.046,0.281
					c-0.174,1.08-0.306,2.17-0.596,3.225c-0.15,0.544-0.34,1.076-0.531,1.607c-0.262,0.731-0.525,1.463-0.788,2.194
					c0.444-0.078,0.831-0.336,1.216-0.571c0.935-0.569,1.93-1.021,2.951-1.417c0.558-0.152,1.11-0.34,1.628-0.589
					c0.421-0.143,0.842-0.284,1.263-0.422l-0.105-0.306c0.241-0.197,0.471-0.409,0.672-0.657c1.101-1.356,1.289-3.249,2.233-4.719
					c0.44-0.684,1.032-1.258,1.654-1.783c2.614-2.212,5.907-3.695,9.328-3.83s6.943,1.165,9.212,3.729
					c0.804,0.909,1.438,1.951,2.005,3.02c0.347,0.653,0.624,1.442,1.023,2.106c0.151,0.252,0.319,0.485,0.516,0.687
					c0.724,0.744,1.462,1.458,2.351,2.009c0.482,0.299,0.987,0.56,1.499,0.804c0.243,0.116,1.273,0.398,1.38,0.618
					C287.808,143.75,287.652,143.42,287.499,143.089z"/>
				<path style="fill:#B47742;" d="M301.509,138.698c-0.5,1.595-1.048,3.176-1.507,4.783c2.503-1.298,5.292-2.689,7.102-4.928
					c0.848-1.049,1.324-2.503,2.091-3.638c0.795-1.178,1.732-2.269,2.865-3.135c2.536-1.938,5.839-2.595,9.03-2.667
					c1.544-0.035,3.116,0.058,4.572,0.574c2.256,0.798,4.069,2.562,5.367,4.573c0.778,1.206,1.393,2.508,1.937,3.833
					c0.275,0.669,0.473,1.403,0.796,2.048c0.091,0.182,0.974,1.083,0.976,1.055c0.164-2.231,0.296-4.465,0.396-6.699
					c0.047-1.058,0.078-1.952-0.245-2.974c-0.287-0.906-0.714-1.763-1.211-2.57c-2.719-4.407-7.617-7.316-12.762-7.902
					c-5.145-0.586-10.45,1.071-14.55,4.234c-1.508,1.164-2.764,3.079-3.31,4.905c-0.302,1.008-0.124,2.243-0.274,3.295
					c-0.161,1.133-0.416,2.25-0.719,3.353C301.888,137.46,301.702,138.08,301.509,138.698z"/>
				<path style="fill:#E2C597;" d="M216.004,145.35c-0.694-3.851,1.467-7.753,0.964-11.633c-0.282-2.171-2.806-4.062-4.064-5.854
					c-4.765-6.785-10.731-11.701-18.798-13.617c-8.067-1.915-16.732-0.458-24.312,2.902c-1.261,0.559-2.365,1.278-3.156,2.409
					c-0.781,1.117-1.162,1.981-1.27,3.34c-1.109,14.071,3.429,28.663,10.834,40.426c0.961,1.526,1.926,3.059,3.1,4.429
					c2.274,2.655,5.244,4.604,8.197,6.475c1.615,1.023,3.238,2.034,4.868,3.031c2.466,1.51,4.999,3.01,7.809,3.692
					c3.658,0.887,7.656,0.275,10.881-1.665c5.558-3.345,7.061-9.632,8.367-15.548c0.416-1.886,1.176-3.954,1.178-5.901
					C220.607,153.173,216.796,149.743,216.004,145.35z"/>
				<path style="fill:#E2C597;" d="M341.708,119.398l24.951-15.073c0,0-1.244,9.22-1.024,12.585
					c0.219,3.366-4.829,9.585-4.829,9.585s-5.488,9.878-4.902,17.195c0.585,7.317,0.073,15-3.585,17.268
					c-3.659,2.268-4.39,5.195-9.659,4.61c-5.268-0.585-5.488-1.244-5.488-1.244l-1.683-19.39L341.708,119.398z"/>
				<path style="fill:#E2C597;" d="M250.15,226.413c-1.85,6.714-3.432,13.547-3.816,20.501c-0.384,6.954,0.475,14.073,3.333,20.424
					c2.172,4.826,5.554,9.182,9.913,12.22c4.736,3.301,9.656,4.4,15.233,5.731c9.396,2.243,18.858,4.22,28.355,5.99
					c9.434,1.758,19.12-3.054,25.254-10.078c4.703-5.385,7.747-11.977,10.042-18.691c1.412-4.13,1.842-8.306,2.426-12.614
					l0.585-5.122l-11.509,5.848c0,0-7.661,6.883-18.052,4.981c-10.39-1.902-23.707-6.878-23.707-6.878l-12.439-4.098l-13.317-6.293
					c0,0-7.024-4.976-8.049-6.146C252.817,230.376,251.322,228.517,250.15,226.413z"/>
				<circle style="fill:#FFFFFF;" cx="269.262" cy="143.829" r="12.219"/>
				<circle style="fill:#FFFFFF;" cx="320.188" cy="141.963" r="12.219"/>
				<ellipse style="fill:#A8210F;" cx="304.585" cy="426.908" rx="45.256" ry="52.763"/>
				
					<ellipse style="fill:none;stroke:#0B1011;stroke-width:2;stroke-linecap:round;stroke-linejoin:round;stroke-miterlimit:10;" cx="304.585" cy="426.908" rx="45.256" ry="52.763"/>
				<path style="fill:#A8210F;" d="M190.018,477.268c0,0-84.878-3.512-129.073-2.342c0,0,1.463-17.268,7.903-27.512H190.31
					L190.018,477.268z"/>
				<path style="fill:#A8210F;" d="M434.464,475.24c-22.18-0.49-45.78-0.77-63.28-0.33c-0.29,0-0.58,0.01-0.87,0.02
					c0,0,2.35-8.71,4.16-18.31c0.02-0.14,0.05-0.28,0.08-0.42v-0.05c0.55-2.91,1.04-5.9,1.39-8.74h51.47
					C429.854,457.22,432.224,466.69,434.464,475.24z"/>
			</g>
			<g>
				<g>
					<g>
						<path style="fill:#0B1011;" d="M230.188,445.195l-40.829,24.695l2.415-41.049
							C191.774,428.842,203.518,441.244,230.188,445.195z"/>
						<path style="fill:#0B1011;" d="M375.871,449l1.61-25.463c0,0-12.395,10.883-20.04,11.968
							C357.441,435.505,375.871,440.366,375.871,449z"/>
						<path style="fill:none;stroke:#0B1011;stroke-width:2;stroke-linecap:round;stroke-linejoin:round;stroke-miterlimit:10;" d="
							M155.92,326.366c0,0-35.122,7.317-51.805,40.39c-16.683,33.073-40.098,74.658-47.889,135.773
							c-0.117,0.918,30.62,1.031,30.62,1.031l355.785-0.062"/>
						<path style="fill:none;stroke:#0B1011;stroke-width:2;stroke-linecap:round;stroke-linejoin:round;stroke-miterlimit:10;" d="
							M443.774,504.707c-10.976-28.829-30.878-130.926-44.634-155.219c-7.755-13.695-27.464-20.546-43.184-23.917"/>
						<path style="fill:none;stroke:#0B1011;stroke-width:2;stroke-linecap:round;stroke-linejoin:round;stroke-miterlimit:10;" d="
							M371.963,503.357c-1.976-13.61-3.262-31.382,3.104-46.747c0,0,2.195-28.098,2.634-32.927c0,0,13.723-35.368-0.546-71.368"/>
						<path style="fill:none;stroke:#0B1011;stroke-width:2;stroke-linecap:round;stroke-linejoin:round;stroke-miterlimit:10;" d="
							M181.659,470.988"/>
						<g>
							<path style="fill:#0B1011;" d="M188.479,506.447l2.051-73.789l0.003-0.051l0.002-0.02c0.677-6.487,0.943-13.069,0.958-19.617
								c0.011-6.556-0.301-13.11-0.959-19.624c-0.675-6.511-1.729-12.982-3.325-19.313c-0.821-3.158-1.755-6.284-2.871-9.342
								c-1.139-3.048-2.44-6.029-3.941-8.904l-0.031-0.065l-0.008-0.018c-0.979-2.26-2.169-4.518-3.432-6.685
								c-1.275-2.17-2.652-4.281-4.149-6.299c-2.988-4.034-6.439-7.741-10.429-10.721l-0.004-0.003
								c-0.442-0.331-0.533-0.957-0.203-1.4c0.331-0.442,0.957-0.533,1.4-0.203l0.003,0.002c4.182,3.146,7.739,7.004,10.804,11.167
								c1.535,2.084,2.942,4.256,4.243,6.487c1.296,2.244,2.486,4.509,3.527,6.933l-0.039-0.083
								c1.536,2.967,2.859,6.031,4.013,9.153c1.13,3.13,2.07,6.32,2.893,9.535c1.599,6.443,2.641,13,3.299,19.583
								c0.64,6.585,0.931,13.198,0.895,19.805c-0.04,6.613-0.328,13.201-1.042,19.805l0.005-0.07l-2.632,73.771
								c-0.01,0.284-0.249,0.506-0.533,0.496C188.692,506.966,188.471,506.729,188.479,506.447z"/>
						</g>
						<g>
							<path style="fill:#0B1011;" d="M196.462,432.667c13.009,8.297,28.344,12.881,43.749,13.09
								c15.405,0.209,30.835-3.959,44.025-11.877c0.237-0.142,0.544-0.065,0.686,0.171c0.142,0.237,0.065,0.544-0.171,0.686
								l-0.002,0.001c-13.394,7.945-29.002,12.067-44.55,11.776c-15.548-0.292-30.967-4.996-44.015-13.414
								c-0.12-0.077-0.154-0.237-0.077-0.356C196.184,432.625,196.342,432.591,196.462,432.667z"/>
						</g>
						<g>
							<path style="fill:#0B1011;" d="M327.909,429.94c4.154,1.772,8.326,3.518,12.658,4.729c4.316,1.21,8.836,1.856,13.269,1.29
								c4.435-0.547,8.642-2.301,12.491-4.574c3.865-2.279,7.426-5.051,10.954-7.865c0.216-0.172,0.53-0.137,0.703,0.079
								c0.172,0.216,0.137,0.53-0.079,0.703l-0.004,0.003c-3.56,2.788-7.179,5.557-11.132,7.84
								c-3.935,2.278-8.269,4.045-12.842,4.567c-4.571,0.541-9.179-0.168-13.534-1.43c-4.372-1.265-8.548-3.059-12.689-4.868
								c-0.13-0.057-0.19-0.209-0.133-0.339C327.628,429.944,327.779,429.885,327.909,429.94z"/>
						</g>
					</g>
					<g>
						<path style="fill:#0B1011;" d="M332.05,323.795c-3.223,3.589-7.071,6.648-11.364,8.845c-4.287,2.218-8.899,3.657-13.531,4.828
							c-0.138,0.035-0.278-0.049-0.313-0.186c-0.034-0.136,0.048-0.275,0.183-0.312c4.593-1.244,9.137-2.751,13.307-5
							c4.177-2.23,7.874-5.273,10.97-8.839c0.181-0.208,0.497-0.231,0.705-0.05c0.208,0.181,0.231,0.497,0.05,0.705
							C332.056,323.789,332.052,323.794,332.05,323.795z"/>
					</g>
					<g>
						<path style="fill:none;" d="M301.749,318.268"/>
					</g>
					<g>
						<path style="fill:#0B1011;" d="M285.976,340.341c0.926,1.43,2.318,2.543,3.819,3.463c1.52,0.901,3.105,1.787,4.781,2.183
							c0.836,0.193,1.706,0.236,2.526,0.065c0.819-0.183,1.59-0.588,2.245-1.135c1.296-1.108,2.118-2.824,1.968-4.54
							c-0.014-0.142,0.09-0.267,0.231-0.281c0.14-0.014,0.264,0.09,0.281,0.229c0.206,1.909-0.654,3.811-2.063,5.072
							c-0.713,0.624-1.569,1.103-2.508,1.335c-0.945,0.219-1.917,0.186-2.841-0.004c-1.856-0.401-3.482-1.278-5.074-2.17
							c-1.579-0.922-3.116-2.075-4.2-3.663c-0.156-0.228-0.098-0.539,0.131-0.695c0.228-0.156,0.539-0.097,0.695,0.131
							C285.971,340.333,285.974,340.338,285.976,340.341z"/>
					</g>
					<g>
						<path style="fill:#0B1011;" d="M262.785,337.122l-41.215-9.602c-0.138-0.032-0.225-0.171-0.192-0.309
							c0.032-0.138,0.169-0.223,0.306-0.193l41.322,9.129c0.27,0.06,0.44,0.326,0.38,0.596c-0.06,0.27-0.327,0.44-0.596,0.38
							C262.79,337.123,262.786,337.122,262.785,337.122z"/>
					</g>
					<path style="fill:none;stroke:#0B1011;stroke-width:2;stroke-linecap:round;stroke-linejoin:round;stroke-miterlimit:10;" d="
						M156.2,326.24l143.098,35.676c0,0,51.831-27.17,63.701-44.281c0,0,1.263-20.758-21.336-31.975l-10.14-6.11"/>
					<path style="fill:none;stroke:#0B1011;stroke-width:2;stroke-linecap:round;stroke-linejoin:round;stroke-miterlimit:10;" d="
						M203.408,286.366c0,0-29.195,6.805-23.488,15.366c5.707,8.561,66.585,46.756,119.268,59.927c0,0,34.39-25.756,36.585-47.415
						c0,0,2.488-5.854-8.488-7.756c-10.976-1.902-11.085-2.144-11.085-2.144"/>
					<path style="fill:none;stroke:#0B1011;stroke-width:2;stroke-linecap:round;stroke-linejoin:round;stroke-miterlimit:10;" d="
						M99.579,374.829c0,0-12.512-78.366,29.415-103.829s86.927-22.171,86.927-22.171"/>
					<g>
						<path style="fill:#0B1011;" d="M180.689,304.683c-4.745-3.458-8.548-8.398-10.087-14.136
							c-0.769-2.852-0.979-5.858-0.548-8.787c0.434-2.927,1.558-5.747,3.216-8.182c3.308-4.91,8.398-8.382,13.875-10.357
							c5.504-2.015,11.355-2.715,17.137-3.046c0.142-0.008,0.264,0.1,0.272,0.242c0.008,0.141-0.1,0.263-0.241,0.272
							c-5.757,0.369-11.551,1.109-16.947,3.129c-5.366,1.975-10.304,5.413-13.465,10.18c-1.585,2.365-2.639,5.072-3.037,7.88
							c-0.395,2.811-0.173,5.702,0.586,8.438c1.514,5.498,5.213,10.245,9.825,13.557c0.224,0.161,0.276,0.473,0.115,0.698
							c-0.161,0.224-0.473,0.276-0.698,0.115L180.689,304.683z"/>
					</g>
					<g>
						<path style="fill:#0B1011;" d="M335.654,311.669c0.212-1.015-0.185-2.153-0.667-3.233c-0.473-1.092-1.061-2.134-1.73-3.122
							c-1.343-1.975-3.053-3.706-5.024-5.079c-0.117-0.081-0.147-0.241-0.066-0.358c0.079-0.115,0.236-0.144,0.352-0.07
							c2.069,1.342,3.895,3.067,5.356,5.07c0.728,1.003,1.378,2.068,1.91,3.192c0.52,1.097,1.078,2.359,0.851,3.785
							c-0.043,0.273-0.3,0.459-0.573,0.415c-0.273-0.043-0.459-0.3-0.415-0.572C335.65,311.69,335.653,311.676,335.654,311.669z"/>
					</g>
					<g>
						<path style="fill:#0B1011;" d="M197.331,145.495c0.86-3.969,3.117-7.511,5.78-10.578c0.316-0.364,0.656-0.764,0.676-1.245
							c0.012-0.288-0.094-0.565-0.2-0.833c-2.973-7.49-7.71-14.272-13.718-19.642c6.549,0.053,13.016,3.073,17.26,8.061
							c1.356,1.593,2.5,3.38,4.046,4.789c1.638,1.493,3.709,2.546,5.002,4.346c1.353,1.883,1.65,4.458,0.831,6.627
							c-0.819,2.169-2.709,3.887-4.924,4.571c-1.244,0.384-2.581,0.463-3.769,0.993c-2.093,0.934-2.858,4.299-3.202,6.566
							c-0.344,2.266,0.051,3.647,0.675,5.852c0.141,0.5-0.094,1.023-0.45,1.401c-0.16,0.169-0.48,0.13-0.701,0.204
							c-1.284,0.431-3.185,1.084-4.51,0.449c-0.967-0.463-1.561-1.814-1.982-2.736C196.897,151.585,196.698,148.415,197.331,145.495
							z"/>
						<path style="fill:#0B1011;" d="M218.375,169.973c0,0-2.738,25.884-16.302,23.022l-0.404-11.799
							C201.668,181.197,213.521,183.911,218.375,169.973z"/>
						<path style="fill:#0B1011;" d="M304.684,241.435c0.359,0,14.73,9.557,29.101-1.796L304.684,241.435z"/>
						<path style="fill:#0B1011;" d="M285.936,248.322c0.265,0.177,20.075,13.442,32.633,13.531c0,0,9.021-2.034,12.47-11.231
							c0,0-6.016,5.349-13,5.041c-7.572-0.334-17.599-3.537-17.599-3.537L285.936,248.322z"/>
						<path style="fill:#0B1011;" d="M317.134,312.707c0,0-8.049,14.488-28.829,2.634c-20.781-11.854-44.927-20.927-55.756-39.951
							c-10.829-19.024-13.902-36.732-13.902-36.732s7.448,11.689,21.204,17.836c0,0,6.162,15.823,18.455,23.432
							c0,0,18.146,8.927,36.146,10.829l12.439,1.463l9.571-1.876C316.461,290.344,314.792,307.293,317.134,312.707z"/>
						<path style="fill:#0B1011;" d="M275.678,195.252c0,0-9.489-3.882-14.018-1.941l6.398-4.313L275.678,195.252z"/>
						<path style="fill:#0B1011;" d="M337.285,191.729c0,0,4.96-2.372,9.705-0.359l-3.235-4.888L337.285,191.729z"/>
						<path style="fill:#0B1011;" d="M358.988,109.659c-2.81,0.871-15.51,6.939-17.699,8.904c0.876,2.05,0.139,2.844-0.627,4.938
							c-7.332,20.022-4.926,25.834-4.774,25.475c3.86-9.136,9.055-24.124,9.04-24.453c-0.057-1.236,2.018-3.566,3.051-4.247
							C351.482,117.967,357.119,111.253,358.988,109.659z"/>
						<path style="fill:none;stroke:#0B1011;stroke-width:2;stroke-linecap:round;stroke-linejoin:round;stroke-miterlimit:10;" d="
							M197.646,102.195c0,0-0.659-10.756-1.756-14.268l53.341-26.122c0,0,41.707-12.951,73.976-2.415c0,0-15.805,6.585-18.22,12.293
							c0,0,13.39,2.195,20.634,6.805c0,0-9.658,2.415-11.634,5.268c0,0,20.195,12.951,22.39,19.098c0,0,8.341,13.61,2.195,27.659
							c-6.146,14.049-2.195,32.927-0.878,34.902c0,0,13.829,4.39,6.366,20.634c0,0,20.854,32.268,6.146,47.415
							c0,0-0.22,7.903-5.488,10.537l-2.854,1.098c-1.446,11.39-2.567,22.478-9.175,32.303c-0.654,0.973-1.345,1.92-2.073,2.839
							c-1.776,2.245-3.768,4.332-6.044,6.068c-9.398,7.172-20.666,5.709-31.517,3.9c-10.729-1.788-21.835-4.285-31.552-9.328
							c-3.02-1.567-5.97-3.444-8.322-5.929c-11.634-12.293-13.61-17.781-13.61-17.781s-15.146-6.805-27.439-29.195
							c0,0-8.341,0-10.756,5.268c0,0-2.854-8.341,0.878-14.049c0,0-7.463,0.439-10.098,3.951c0,0,12.951-22.61,9.659-41.707
							c0,0-22.61-1.976-33.366-35.122C168.451,146.317,149.792,98.244,197.646,102.195z"/>
						<path style="fill:none;stroke:#0B1011;stroke-width:2;stroke-linecap:round;stroke-linejoin:round;stroke-miterlimit:10;" d="
							M336.568,102.295c0,0,21.976-12.947,31.345-6.133c0,0,5.451,0.681-1.022,7.666c0,0-1.363,4.6-1.193,9.54
							c0.17,4.94,0.511,4.77-3.237,10.903c-3.748,6.133-6.814,11.584-6.133,17.887c0.682,6.303,1.061,26.412-18.634,23.257"/>
						<path style="fill:none;stroke:#0B1011;stroke-linecap:round;stroke-linejoin:round;stroke-miterlimit:10;" d="
							M254.353,199.878l-9.658-11.415l1.756-14.634c0,0-43.133-25.702-17.561-62.927c23.122-33.659,64.683-6.146,64.683-6.146
							s23.707-24.878,43.024-0.293"/>
						<path style="fill:none;stroke:#0B1011;stroke-linecap:round;stroke-linejoin:round;stroke-miterlimit:10;" d="
							M268.695,188.756c0,0-13.317,7.463-16.098,13.756c-2.781,6.293-4.244,14.341-4.244,14.341"/>
						<g>
							<path style="fill:#0B1011;" d="M287.782,200.386c-2.935-0.762-5.82-1.719-8.63-2.864c-2.774-1.154-5.652-2.391-8.038-4.461
								c-2.368-2.033-4.24-4.658-5.326-7.606c-1.092-2.935-1.399-6.214-0.645-9.315c0.74-3.079,2.502-5.971,5.107-7.887
								c2.587-1.931,5.787-2.832,8.923-2.948c3.163-0.137,6.295,0.586,9.169,1.722c2.888,1.143,5.555,2.699,8.096,4.366
								c0.462,0.303,0.591,0.923,0.288,1.385c-0.303,0.462-0.923,0.591-1.385,0.288c-0.001-0.001-0.009-0.006-0.011-0.007
								c-2.461-1.653-5.002-3.166-7.697-4.266c-2.691-1.095-5.541-1.778-8.401-1.684c-2.846,0.072-5.707,0.862-7.971,2.518
								c-2.273,1.629-3.867,4.157-4.558,6.9c-0.701,2.746-0.468,5.716,0.503,8.414c0.961,2.707,2.662,5.153,4.831,7.056
								c2.156,1.921,4.878,3.143,7.618,4.316c2.743,1.153,5.565,2.123,8.439,2.903c0.323,0.087,0.514,0.42,0.427,0.743
								C288.432,200.279,288.103,200.469,287.782,200.386z"/>
						</g>
						<g>
							<path style="fill:#0B1011;" d="M316.292,172.499c1.872-2.348,4.369-4.027,6.968-5.24c2.602-1.206,5.365-2.099,8.255-2.428
								c2.874-0.322,5.901-0.052,8.603,1.215c2.665,1.244,4.979,3.367,6.178,6.131c0.593,1.374,0.834,2.92,0.812,4.347
								c-0.021,1.425-0.029,2.799-0.2,4.252c-0.16,1.439-0.614,2.913-1.378,4.176c-0.741,1.282-1.754,2.354-2.829,3.301
								c-2.184,1.877-4.667,3.226-7.074,4.613c-2.426,1.378-4.947,2.695-7.678,3.498c-0.23,0.068-0.471-0.064-0.538-0.294
								c-0.067-0.227,0.063-0.466,0.288-0.537c2.608-0.815,5.04-2.133,7.423-3.541c2.384-1.425,4.801-2.804,6.819-4.603
								c2.025-1.782,3.491-4.099,3.684-6.764c0.135-1.314,0.125-2.731,0.121-4.087c-0.008-1.355-0.238-2.607-0.763-3.789
								c-1.064-2.352-3.138-4.215-5.519-5.272c-2.377-1.07-5.115-1.285-7.743-0.943c-2.643,0.344-5.234,1.225-7.656,2.399
								c-2.41,1.173-4.618,2.744-6.194,4.794c-0.335,0.439-0.962,0.524-1.402,0.189c-0.439-0.335-0.524-0.962-0.189-1.402
								C316.281,172.512,316.289,172.502,316.292,172.499z"/>
						</g>
						<path style="fill:none;stroke:#0B1011;stroke-linecap:round;stroke-linejoin:round;stroke-miterlimit:10;" d="
							M165.648,120.026c6.983-5.758,16.525-7.978,25.504-6.841c5.094,0.646,10.182,2.386,14.023,5.794
							c3.362,2.983,5.639,7.11,9.285,9.738c0.326,0.235,0.682,0.464,1.083,0.495c0.644,0.049,1.204-0.418,1.648-0.888
							c2.24-2.374,3.531-5.619,3.536-8.884c0.005-3.264-1.277-6.513-3.51-8.894c-1.415-1.509-3.171-2.659-4.998-3.629
							c-4.685-2.489-9.888-3.862-15.119-4.745"/>
						<path style="fill:none;stroke:#0B1011;stroke-linecap:round;stroke-linejoin:round;stroke-miterlimit:10;" d="
							M340.909,118.877c9.416-4.668,18.945-9.411,26.883-16.3"/>
						<path style="fill:none;stroke:#0B1011;stroke-linecap:round;stroke-linejoin:round;stroke-miterlimit:10;" d="
							M200.941,180.959c2.784,0.135,5.656,0.257,8.272-0.706c3.697-1.36,6.33-4.702,8.069-8.236
							c1.914-3.89,2.982-8.193,3.109-12.527"/>
						<g>
							<path style="fill:#0B1011;" d="M193.575,150.526c0.43,1.974,1.617,3.769,3.245,4.954c1.628,1.186,3.708,1.707,5.703,1.497
								c0.499-0.054,0.992-0.153,1.471-0.296c0.479-0.133,0.926-0.333,1.242-0.63c0.318-0.303,0.395-0.651,0.232-1.073
								c-0.163-0.408-0.453-0.927-0.614-1.444c-0.687-2.099-0.431-4.359,0.273-6.368c0.355-1.012,0.828-1.981,1.415-2.883
								c0.3-0.449,0.604-0.886,0.987-1.296c0.373-0.41,0.87-0.782,1.406-0.993c1.08-0.413,2.089-0.497,3.05-0.824
								c0.961-0.298,1.878-0.711,2.63-1.325c1.517-1.219,2.445-3.164,2.429-5.105c0-1.949-0.845-3.907-2.311-5.167
								c-0.21-0.18-0.234-0.495-0.054-0.705c0.18-0.21,0.496-0.234,0.705-0.054c0.001,0.001,0.004,0.003,0.005,0.004
								c1.69,1.487,2.613,3.713,2.595,5.925c-0.01,2.233-1.076,4.41-2.821,5.789c-0.875,0.699-1.903,1.141-2.929,1.448
								c-1.02,0.33-2.117,0.436-2.989,0.771c-0.862,0.315-1.476,1.131-2.046,1.966c-0.558,0.839-1.014,1.751-1.358,2.702
								c-0.686,1.89-0.929,4.001-0.326,5.896c0.145,0.482,0.374,0.876,0.595,1.435c0.099,0.275,0.159,0.62,0.08,0.954
								c-0.077,0.334-0.271,0.619-0.495,0.828c-0.453,0.415-0.998,0.629-1.518,0.772c-0.52,0.15-1.054,0.252-1.591,0.305
								c-2.15,0.205-4.37-0.375-6.107-1.666c-1.731-1.287-2.969-3.203-3.408-5.311c-0.029-0.139,0.061-0.275,0.2-0.305
								C193.409,150.299,193.545,150.388,193.575,150.526z"/>
						</g>
						<g>
							<path style="fill:#0B1011;" d="M248.77,216.954c-0.382,2.2,0.051,4.624,0.972,6.727c0.929,2.131,2.382,4.015,4.091,5.611
								c3.453,3.197,7.812,5.298,12.27,6.854c4.485,1.547,9.157,2.546,13.862,3.248c4.709,0.702,9.463,1.106,14.226,1.319
								c4.763,0.222,9.536,0.237,14.306,0.132c2.387-0.047,4.766-0.138,7.159-0.254c2.406-0.109,4.762-0.151,7.144-0.344
								c4.748-0.349,9.487-0.927,14.13-1.923c2.32-0.498,4.61-1.127,6.827-1.932c2.199-0.829,4.349-1.85,6.13-3.311l0.009-0.007
								c0.213-0.175,0.529-0.144,0.704,0.069c0.175,0.213,0.144,0.529-0.069,0.704l-0.001,0.001
								c-1.93,1.577-4.166,2.623-6.429,3.475c-2.278,0.825-4.61,1.46-6.963,1.962c-4.709,1.004-9.485,1.578-14.269,1.925
								c-2.384,0.191-4.81,0.232-7.179,0.337c-2.381,0.113-4.78,0.202-7.173,0.246c-4.788,0.098-9.581,0.078-14.368-0.151
								c-4.787-0.22-9.571-0.632-14.319-1.346c-4.744-0.714-9.463-1.727-14.019-3.305c-4.528-1.59-8.986-3.73-12.575-7.059
								c-1.776-1.663-3.304-3.643-4.287-5.904c-0.967-2.264-1.451-4.747-1.011-7.273c0.04-0.233,0.262-0.388,0.494-0.348
								c0.233,0.04,0.388,0.262,0.348,0.495L248.77,216.954z"/>
						</g>
						<g>
							<path style="fill:#0B1011;" d="M248.562,220.512c0.17,2.088,1.113,4.225,2.261,6.091c1.16,1.895,2.604,3.617,4.201,5.18
								c1.592,1.571,3.34,2.987,5.177,4.276c1.83,1.299,3.746,2.483,5.723,3.557c7.909,4.323,16.537,7.216,25.254,9.526
								c2.186,0.561,4.379,1.106,6.596,1.585l1.657,0.374l1.641,0.442l3.281,0.89l6.561,1.78c1.099,0.274,2.186,0.651,3.249,0.813
								c1.086,0.182,2.196,0.252,3.3,0.248c2.21-0.024,4.414-0.423,6.453-1.241c1.022-0.434,1.953-0.938,2.928-1.551l2.917-1.753
								c3.908-2.308,7.859-4.528,11.895-6.624c0.245-0.127,0.547-0.032,0.674,0.213c0.127,0.245,0.032,0.547-0.213,0.674l-0.001,0
								l-0.006,0.003c-4.005,2.073-7.956,4.286-11.849,6.578l-2.908,1.742c-0.941,0.592-2.005,1.173-3.07,1.618
								c-2.168,0.867-4.495,1.282-6.811,1.304c-1.159,0.003-2.317-0.071-3.465-0.265c-1.178-0.186-2.24-0.564-3.336-0.837
								l-6.548-1.786l-3.274-0.893l-1.638-0.443l-1.655-0.376c-2.21-0.481-4.411-1.03-6.611-1.598
								c-8.763-2.336-17.445-5.255-25.45-9.642c-2-1.09-3.943-2.294-5.803-3.618c-1.867-1.314-3.649-2.76-5.279-4.373
								c-1.635-1.605-3.122-3.379-4.326-5.351c-1.189-1.98-2.181-4.096-2.379-6.543c-0.019-0.235,0.156-0.441,0.391-0.46
								c0.235-0.019,0.441,0.156,0.46,0.391L248.562,220.512z"/>
						</g>
						<g>
							<path style="fill:#0B1011;" d="M316.963,263.614c-1.306,6.119-0.755,12.598,1.534,18.368c0.102,0.257-0.024,0.547-0.28,0.649
								c-0.257,0.102-0.547-0.024-0.649-0.28c-0.001-0.003-0.004-0.009-0.005-0.012c-2.209-6.016-2.588-12.654-1.102-18.839
								c0.033-0.138,0.172-0.223,0.31-0.19C316.907,263.342,316.992,263.478,316.963,263.614z"/>
						</g>
						<g>
							<path style="fill:#0B1011;" d="M309.843,198.367c0.165,1.717,1.391,3.168,2.801,4.176c1.427,1.036,3.096,1.785,4.592,2.852
								c3.007,2.078,5.56,4.818,7.419,7.975c1.88,3.146,3.026,6.73,3.365,10.385c0.346,3.656-0.105,7.388-1.33,10.864
								c-0.092,0.26-0.377,0.397-0.638,0.305c-0.26-0.092-0.397-0.377-0.305-0.638c0-0.001,0.002-0.007,0.003-0.008
								c1.212-3.32,1.69-6.913,1.395-10.447c-0.289-3.534-1.354-7.007-3.144-10.08c-1.769-3.083-4.222-5.778-7.129-7.835
								c-1.433-1.051-3.08-1.809-4.569-2.91c-1.466-1.077-2.801-2.647-2.973-4.597c-0.012-0.142,0.092-0.267,0.234-0.279
								C309.705,198.119,309.829,198.227,309.843,198.367z"/>
						</g>
						<g>
							<path style="fill:#0B1011;" d="M300.883,218.708c0.95,5.174,1.325,10.462,1.112,15.736c-0.011,0.276-0.244,0.491-0.52,0.48
								c-0.276-0.011-0.491-0.244-0.48-0.52c0-0.004,0.001-0.011,0.001-0.016c0.371-5.191,0.163-10.432-0.621-15.595
								c-0.021-0.141,0.075-0.272,0.216-0.293C300.729,218.479,300.858,218.572,300.883,218.708z"/>
						</g>
						<g>
							<path style="fill:#0B1011;" d="M335.796,215.926c0.734,0.837,1.282,1.824,1.664,2.857c0.387,1.033,0.632,2.106,0.817,3.176
								c0.356,2.144,0.567,4.27,0.854,6.407c0.037,0.274-0.156,0.525-0.429,0.562c-0.274,0.037-0.526-0.156-0.562-0.429
								c-0.001-0.005-0.001-0.011-0.002-0.017l-0.002-0.019c-0.204-2.128-0.338-4.284-0.607-6.388
								c-0.281-2.083-0.795-4.196-2.124-5.815c-0.091-0.109-0.076-0.272,0.033-0.363
								C335.545,215.809,335.704,215.823,335.796,215.926z"/>
						</g>
						<g>
							<path style="fill:#0B1011;" d="M346.049,215.949c0.992,1.361,1.524,3.003,1.791,4.635c0.271,1.64,0.307,3.293,0.328,4.919
								c0.004,0.276-0.217,0.503-0.493,0.507c-0.276,0.004-0.503-0.217-0.507-0.493c0-0.008,0-0.018,0-0.025
								c0.059-1.617,0.102-3.223-0.078-4.801c-0.178-1.571-0.601-3.128-1.466-4.449c-0.078-0.119-0.044-0.279,0.074-0.356
								C345.814,215.81,345.969,215.84,346.049,215.949z"/>
						</g>
						<g>
							<path style="fill:#0B1011;" d="M278.152,217.991c-1.023,3.763-1.331,7.704-0.914,11.551c0.03,0.275-0.169,0.521-0.443,0.551
								c-0.275,0.03-0.521-0.169-0.551-0.443c-0.001-0.006-0.001-0.015-0.002-0.021c-0.267-3.986,0.22-8.004,1.417-11.784
								c0.043-0.135,0.188-0.211,0.323-0.168C278.113,217.72,278.188,217.859,278.152,217.991z"/>
						</g>
						<g>
							<path style="fill:#0B1011;" d="M260.256,217.059c-0.35,1.52-0.639,3.053-0.71,4.585c-0.072,1.527,0.092,3.06,0.644,4.437
								c0.103,0.257-0.022,0.548-0.278,0.65c-0.256,0.103-0.548-0.022-0.65-0.278c-0.003-0.008-0.007-0.02-0.01-0.028
								c-0.537-1.576-0.617-3.243-0.461-4.835c0.157-1.599,0.535-3.145,0.966-4.659c0.039-0.137,0.181-0.216,0.318-0.177
								C260.208,216.791,260.286,216.927,260.256,217.059z"/>
						</g>
						<g>
							<path style="fill:#0B1011;" d="M198.858,167.807c1.486,1.308,3.382,2.12,5.343,2.355c1.956,0.222,3.993-0.047,5.747-0.924
								c1.762-0.853,3.18-2.299,4.245-3.965c1.085-1.663,1.88-3.52,2.673-5.387c0.107-0.255,0.4-0.374,0.655-0.267
								c0.255,0.107,0.374,0.4,0.267,0.655c-0.001,0.002-0.004,0.008-0.005,0.011c-0.833,1.857-1.682,3.748-2.859,5.476
								c-1.152,1.728-2.717,3.275-4.652,4.162c-1.917,0.908-4.089,1.147-6.156,0.87c-2.072-0.291-4.063-1.189-5.607-2.606
								c-0.105-0.096-0.112-0.259-0.016-0.364c0.095-0.103,0.255-0.112,0.36-0.019L198.858,167.807z"/>
						</g>
						<g>
							<path style="fill:#0B1011;" d="M174.951,150.01c4.196,12.758,14.643,23.237,27.302,27.476
								c0.262,0.087,0.403,0.371,0.316,0.633c-0.088,0.262-0.371,0.403-0.633,0.316c-0.001,0-0.005-0.002-0.006-0.002
								c-12.917-4.505-23.372-15.297-27.469-28.265c-0.043-0.136,0.032-0.28,0.168-0.323
								C174.764,149.802,174.907,149.876,174.951,150.01z"/>
						</g>
						<path style="fill:none;stroke:#0B1011;stroke-width:2;stroke-linecap:round;stroke-linejoin:round;stroke-miterlimit:10;" d="
							M282.453,143.752c0,1.2-0.16,2.36-0.47,3.46c-1.51,5.4-6.46,9.35-12.34,9.35c-5.63,0-10.4-3.63-12.12-8.68
							c-0.44-1.3-0.68-2.68-0.68-4.13c0-1.55,0.28-3.04,0.79-4.42c1.79-4.89,6.49-8.38,12.01-8.38c5.36,0,9.95,3.29,11.86,7.96
							C282.113,140.402,282.453,142.042,282.453,143.752z"/>
						<path style="fill:#0B1011;" d="M281.983,147.212c0.31-1.1,0.47-2.26,0.47-3.46c0-1.71-0.34-3.35-0.95-4.84l6.66,5.21
							L281.983,147.212z"/>
						<path style="fill:#0B1011;" d="M256.843,143.752c0,1.45,0.24,2.83,0.68,4.13c-2.91-0.78-8.44-2.22-8.44-2.22l8.55-6.33
							C257.123,140.712,256.843,142.202,256.843,143.752z"/>
						
							<ellipse transform="matrix(0.1386 -0.9904 0.9904 0.1386 92.1645 391.7156)" style="fill:#0B1011;" cx="271.256" cy="142.878" rx="7.683" ry="7.683"/>
						<ellipse style="fill:#FFFFFF;" cx="275.472" cy="142.532" rx="5.003" ry="3.349"/>
						<circle style="fill:#FFFFFF;" cx="266.847" cy="142.149" r="1.271"/>
						<g>
							<path style="fill:#0B1011;" d="M252.215,131.981c1.302-3.348,3.979-6.082,7.188-7.654c3.209-1.598,6.859-2.194,10.416-1.918
								c3.552,0.284,7.097,1.453,9.965,3.674c1.427,1.108,2.655,2.493,3.555,4.075c0.905,1.58,1.469,3.348,1.701,5.148
								c0.037,0.274-0.156,0.525-0.429,0.562c-0.274,0.037-0.525-0.156-0.562-0.429c0-0.003-0.001-0.01-0.001-0.013
								c-0.363-3.378-2.116-6.548-4.808-8.652c-2.677-2.126-6.062-3.298-9.485-3.61c-3.427-0.307-6.965,0.23-10.071,1.734
								c-3.107,1.481-5.698,4.065-6.991,7.276c-0.053,0.132-0.203,0.196-0.335,0.143
								C252.226,132.264,252.164,132.112,252.215,131.981z"/>
						</g>
						<g>
							<path style="fill:#0B1011;" d="M294.354,117.487c0.029,1.633,0.264,3.261,0.694,4.834c0.218,0.786,0.48,1.559,0.793,2.312
								c0.311,0.756,0.67,1.527,0.863,2.381c0.19,0.855,0.196,1.711,0.195,2.543c-0.006,0.837-0.047,1.671-0.104,2.501
								c-0.114,1.66-0.293,3.305-0.378,4.944c-0.345,6.55,0.91,13.171,3.623,19.122c0.115,0.251,0.004,0.548-0.247,0.662
								c-0.251,0.115-0.548,0.004-0.662-0.248c0-0.001-0.002-0.005-0.003-0.006c-2.706-6.133-3.899-12.907-3.467-19.575
								c0.107-1.666,0.306-3.311,0.439-4.952c0.106-1.626,0.265-3.313-0.018-4.857c-0.162-0.768-0.493-1.514-0.803-2.289
								c-0.312-0.779-0.573-1.58-0.787-2.391c-0.423-1.625-0.643-3.301-0.653-4.978c-0.001-0.142,0.114-0.258,0.256-0.259
								C294.236,117.232,294.351,117.346,294.354,117.487z"/>
						</g>
						<g>
							<path style="fill:#0B1011;" d="M311.315,167.399c0.802-1.091,1.818-2.019,2.945-2.756c1.122-0.749,2.343-1.324,3.58-1.821
								c1.242-0.493,2.503-0.903,3.77-1.294c1.266-0.382,2.656-0.732,4.108-0.485c0.272,0.046,0.455,0.305,0.409,0.577
								c-0.046,0.272-0.305,0.455-0.577,0.409c-0.005-0.001-0.014-0.003-0.019-0.003c-1.166-0.242-2.432,0.008-3.679,0.348
								c-1.261,0.347-2.521,0.714-3.742,1.157c-1.219,0.447-2.414,0.967-3.506,1.649c-1.099,0.672-2.084,1.519-2.876,2.529
								c-0.086,0.113-0.247,0.135-0.361,0.05C311.255,167.672,311.235,167.512,311.315,167.399z"/>
						</g>
						<g>
							<path style="fill:#0B1011;" d="M300.596,167.449c-4.395-3.063-9.764-4.662-15.066-4.519c-0.276,0.008-0.506-0.21-0.513-0.486
								c-0.007-0.276,0.21-0.506,0.486-0.513c0.004,0,0.011,0,0.015,0c5.522,0.018,10.986,1.842,15.378,5.101
								c0.114,0.085,0.138,0.246,0.053,0.36C300.867,167.503,300.71,167.528,300.596,167.449z"/>
						</g>
						<path style="fill:#0B1011;" d="M299.135,186.345c-6.813-3.504-10.809-12.338-18.959-11.07
							c-2.47,0.252-4.899,1.687-4.973,4.361c0.568,11.63,17.52,13.467,26.621,12.258c1.104-0.165,3.165-0.671,4.296-1.587
							c0.927-0.751,0.325-2.232-0.868-2.249C303.179,188.028,301.06,187.335,299.135,186.345z"/>
						<path style="fill:#0B1011;" d="M317.794,184.764c6.19-4.514,8.774-13.859,17.022-13.864c2.479-0.133,5.1,0.91,5.587,3.541
							c1.235,11.578-15.23,16.01-24.409,16.221c-1.116,0.007-3.23-0.174-4.489-0.905c-1.032-0.599-0.666-2.155,0.51-2.356
							C314.059,187.051,316.044,186.039,317.794,184.764z"/>
						<g>
							<path style="fill:#0B1011;" d="M260.573,157.704c1.445-0.401,2.895-0.625,4.363-0.792c1.466-0.16,2.94-0.235,4.415-0.247
								c1.474,0.012,2.951,0.055,4.419,0.203c1.471,0.126,2.931,0.345,4.387,0.592c0.272,0.046,0.456,0.304,0.409,0.577
								c-0.046,0.272-0.304,0.456-0.577,0.409c-0.004-0.001-0.007-0.001-0.011-0.002l-0.014-0.003
								c-1.42-0.281-2.847-0.537-4.287-0.7c-1.438-0.186-2.886-0.267-4.334-0.32c-1.449-0.029-2.901,0.005-4.346,0.123
								c-1.44,0.122-2.895,0.31-4.279,0.653l-0.015,0.004c-0.138,0.034-0.277-0.05-0.312-0.188
								C260.359,157.879,260.44,157.742,260.573,157.704z"/>
						</g>
						<path style="fill:none;stroke:#0B1011;stroke-width:2;stroke-linecap:round;stroke-linejoin:round;stroke-miterlimit:10;" d="
							M333.087,141.923c0,1.2-0.16,2.36-0.47,3.46c-1.51,5.4-6.46,9.35-12.34,9.35c-5.63,0-10.4-3.63-12.12-8.68
							c-0.44-1.3-0.68-2.68-0.68-4.13c0-1.55,0.28-3.04,0.79-4.42c1.79-4.89,6.49-8.38,12.01-8.38c5.36,0,9.95,3.29,11.86,7.96
							C332.747,138.573,333.087,140.213,333.087,141.923z"/>
						<path style="fill:#0B1011;" d="M332.617,145.383c0.31-1.1,0.47-2.26,0.47-3.46c0-1.71-0.34-3.35-0.95-4.84l3.161,4.803
							L332.617,145.383z"/>
						<path style="fill:#0B1011;" d="M307.477,141.923c0,1.45,0.24,2.83,0.68,4.13c-2.91-0.78-8.44-2.22-8.44-2.22l8.55-6.33
							C307.757,138.883,307.477,140.373,307.477,141.923z"/>
						<circle style="fill:#0B1011;" cx="321.89" cy="141.049" r="7.683"/>
						<path style="fill:#FFFFFF;" d="M330.817,140.702c0,1.849-2.174,3.349-4.857,3.349c-2.682,0-4.857-1.499-4.857-3.349
							c0-1.849,2.174-3.348,4.857-3.348C328.642,137.354,330.817,138.853,330.817,140.702z"/>
						<path style="fill:#FFFFFF;" d="M318.753,140.32c0,0.702-0.569,1.271-1.271,1.271s-1.271-0.569-1.271-1.271
							c0-0.702,0.569-1.271,1.271-1.271S318.753,139.618,318.753,140.32z"/>
						<g>
							<path style="fill:#0B1011;" d="M302.849,130.152c1.302-3.348,3.979-6.082,7.188-7.654c3.209-1.598,6.859-2.194,10.416-1.918
								c3.552,0.284,7.097,1.453,9.965,3.674c1.427,1.108,2.655,2.493,3.555,4.075c0.905,1.58,1.469,3.348,1.701,5.148
								c0.037,0.274-0.156,0.525-0.429,0.562c-0.274,0.037-0.525-0.156-0.562-0.429c0-0.003-0.001-0.01-0.002-0.013
								c-0.363-3.379-2.116-6.548-4.808-8.652c-2.676-2.126-6.062-3.298-9.485-3.61c-3.427-0.307-6.965,0.23-10.071,1.733
								c-3.107,1.481-5.698,4.065-6.992,7.276c-0.053,0.132-0.203,0.196-0.335,0.142
								C302.861,130.434,302.798,130.283,302.849,130.152z"/>
						</g>
						<g>
							<path style="fill:#0B1011;" d="M311.207,155.875c1.445-0.401,2.896-0.625,4.363-0.792c1.466-0.161,2.94-0.235,4.415-0.247
								c1.474,0.012,2.95,0.055,4.419,0.203c1.471,0.126,2.931,0.345,4.387,0.592c0.272,0.046,0.456,0.304,0.409,0.577
								c-0.046,0.272-0.304,0.456-0.577,0.409c-0.004-0.001-0.008-0.001-0.011-0.002l-0.014-0.003
								c-1.42-0.281-2.847-0.537-4.287-0.7c-1.438-0.186-2.886-0.267-4.335-0.32c-1.449-0.028-2.901,0.005-4.346,0.123
								c-1.44,0.122-2.895,0.31-4.279,0.653l-0.015,0.004c-0.138,0.034-0.277-0.05-0.312-0.188
								C310.993,156.049,311.074,155.912,311.207,155.875z"/>
						</g>
						<g>
							<path style="fill:#0B1011;" d="M255.183,62.578c7.281-1.907,14.984-1.891,22.352-0.474
								c7.389,1.422,14.455,4.222,21.057,7.775c0.243,0.131,0.334,0.434,0.203,0.677c-0.131,0.243-0.434,0.334-0.677,0.203
								l-0.005-0.003c-6.495-3.586-13.447-6.428-20.726-7.91c-7.258-1.478-14.863-1.576-22.077,0.229
								c-0.138,0.035-0.278-0.049-0.312-0.187C254.964,62.752,255.047,62.613,255.183,62.578z"/>
						</g>
						<g>
							<path style="fill:#0B1011;" d="M312.427,251.549c3.348,0.604,6.838,0.279,9.979-0.906c0.258-0.098,0.547,0.033,0.644,0.291
								c0.098,0.258-0.033,0.547-0.291,0.645c-0.007,0.003-0.016,0.006-0.023,0.008c-3.368,1.092-7.004,1.247-10.413,0.466
								c-0.139-0.032-0.225-0.17-0.194-0.309C312.16,251.61,312.292,251.525,312.427,251.549z"/>
						</g>
						<path style="fill:none;stroke:#0B1011;stroke-width:2;stroke-linecap:round;stroke-linejoin:round;stroke-miterlimit:10;" d="
							M191.774,310.951c0,0,24.97-45.878,26.507-73.537"/>
						<path style="fill:none;stroke:#0B1011;stroke-width:2;stroke-linecap:round;stroke-linejoin:round;stroke-miterlimit:10;" d="
							M316.408,291.09c0.402,1.408-2.766,15.765,3.122,27.616c1.023,2.058,2.963,3.512,5.218,3.955
							c2.212,0.435,4.73,0.897,8.225,1.01"/>
						<g>
							<path style="fill:#0B1011;" d="M351.385,147.329c0.189-0.032,0.406,0.092,0.485,0.219c0.092,0.125,0.13,0.245,0.159,0.362
								c0.054,0.25,0.029,0.44,0.038,0.632c0.003,0.389-0.009,0.779-0.032,1.168c-0.047,0.778-0.147,1.554-0.302,2.32
								c-0.309,1.532-0.848,3.028-1.633,4.397c-1.562,2.732-4.168,4.944-7.301,5.766c-0.267,0.07-0.54-0.09-0.611-0.357
								c-0.07-0.267,0.09-0.541,0.357-0.611c0.004-0.001,0.011-0.003,0.015-0.004c2.849-0.662,5.351-2.645,6.887-5.18
								c0.774-1.272,1.328-2.683,1.663-4.147c0.168-0.732,0.284-1.477,0.35-2.228c0.033-0.375,0.054-0.752,0.061-1.129
								c-0.001-0.19,0.019-0.388-0.011-0.514c-0.031-0.162-0.102-0.204-0.068-0.183c-0.141,0.016-0.269-0.086-0.285-0.227
								C351.142,147.473,351.244,147.345,351.385,147.329z"/>
						</g>
						<g>
							<path style="fill:#0B1011;" d="M361.231,115.7c-3.97,3.877-6.567,9.097-7.276,14.545c-0.036,0.274-0.286,0.467-0.56,0.431
								s-0.467-0.286-0.431-0.56c0-0.004,0.001-0.011,0.002-0.015c0.903-5.652,3.745-10.932,7.911-14.774
								c0.104-0.096,0.267-0.09,0.364,0.015C361.335,115.443,361.33,115.603,361.231,115.7z"/>
						</g>
						<g>
							<path style="fill:#0B1011;" d="M202.813,89.728c10.03-0.795,20.186-0.115,30.043,2.018c0.27,0.058,0.441,0.325,0.383,0.594
								s-0.324,0.441-0.594,0.383c-0.002,0-0.006-0.001-0.008-0.002c-9.725-2.27-19.796-3.111-29.787-2.48
								c-0.142,0.009-0.264-0.099-0.273-0.241C202.568,89.86,202.673,89.739,202.813,89.728z"/>
						</g>
					</g>
					<path style="fill:none;stroke:#0B1011;stroke-linecap:round;stroke-linejoin:round;stroke-miterlimit:10;" d="M249.831,225.557
						c0,0-9.145,27.434,0.218,44.852"/>
					<path style="fill:none;stroke:#0B1011;stroke-width:2;stroke-linecap:round;stroke-linejoin:round;stroke-miterlimit:10;" d="
						M324.157,207.917c0.697,1.047,1.599,1.994,2.658,2.79c0.229-1.003,0.596-1.983,1.092-2.913c0.844,0.64,1.689,1.281,2.533,1.921
						c0.659-0.843,1.17-1.77,1.511-2.74c0.88,0.92,1.872,1.762,2.956,2.507c0.786-0.905,1.474-1.871,2.051-2.884
						c1.045,0.847,2.13,1.657,3.253,2.429c0.488-1.243,1.021-2.473,1.599-3.689c1.057,0.981,2.169,1.92,3.331,2.811
						c0.342-0.782,0.588-1.595,0.731-2.421"/>
					<path style="fill:none;stroke:#0B1011;stroke-width:2;stroke-linecap:round;stroke-linejoin:round;stroke-miterlimit:10;" d="
						M292.876,211.484c0.697,1.047,1.599,1.994,2.658,2.79c0.229-1.003,0.596-1.983,1.092-2.914c0.844,0.64,1.689,1.281,2.533,1.921
						c0.659-0.843,1.17-1.77,1.511-2.74c0.88,0.92,1.872,1.762,2.956,2.507c0.786-0.904,1.474-1.871,2.051-2.884
						c1.045,0.847,2.13,1.657,3.253,2.429c0.488-1.243,1.021-2.474,1.599-3.688c1.057,0.981,2.169,1.919,3.331,2.811
						c0.342-0.782,0.588-1.595,0.732-2.421"/>
					<g>
						<path style="fill:#0B1011;" d="M190.4,447.976c-1.465,0.072-2.692,0.051-3.958,0.068l-3.798,0.024l-7.594,0.039l-15.188,0.066
							l-30.375,0.114l-60.751,0.201c-0.552,0.002-1.002-0.444-1.003-0.997c-0.002-0.552,0.444-1.001,0.997-1.003h0.008
							l121.336,0.512l0.304,0.001c0.27,0.001,0.487,0.221,0.486,0.49C190.863,447.751,190.657,447.963,190.4,447.976z"/>
					</g>
					<g>
						<path style="fill:#0B1011;" d="M190.4,477.501c-1.55,0.053-2.847,0.008-4.186,0.004l-4.018-0.041l-8.034-0.091l-16.067-0.195
							l-32.133-0.408l-64.266-0.843c-0.552-0.007-0.994-0.461-0.987-1.013c0.007-0.552,0.461-0.994,1.013-0.987l0.008,0
							l128.344,2.597l0.319,0.007c0.268,0.005,0.481,0.227,0.476,0.495C190.864,477.284,190.655,477.491,190.4,477.501z"/>
					</g>
					<g>
						<path style="fill:#0B1011;" d="M435.315,475.833c-0.379,0.028-0.858,0.046-1.166,0.042l-1.004,0.002l-2.007-0.001
							l-4.012-0.011l-8.022-0.034l-16.042-0.087l-32.083-0.201c-0.552-0.003-0.997-0.454-0.994-1.006
							c0.003-0.552,0.454-0.997,1.006-0.994c0.003,0,0.013,0,0.016,0l63.982,1.312l0.299,0.006c0.268,0.006,0.482,0.228,0.476,0.496
							C435.76,475.61,435.561,475.813,435.315,475.833z"/>
					</g>
					<g>
						<path style="fill:#0B1011;" d="M427.969,447.868c-0.315,0.028-0.724,0.045-0.974,0.042l-0.812,0.002l-1.622,0l-3.24-0.011
							l-6.478-0.034l-12.955-0.086l-25.909-0.201c-0.552-0.004-0.997-0.456-0.992-1.008c0.004-0.552,0.455-0.997,1.008-0.992
							c0.004,0,0.016,0,0.02,0l51.628,1.312l0.295,0.008c0.268,0.007,0.48,0.23,0.473,0.498
							C428.405,447.646,428.212,447.846,427.969,447.868z"/>
					</g>
				</g>
				<g>
					<path style="fill:#D8DAD9;" d="M176.535,163.938c-13.548,14.98-11.428,25.886-7.587,32.2c3.221,5.293,10.11,7.211,15.41,4.002
						c12.443-7.533,13.793-30.675,9.117-34.371c-5.677-4.487-7.692,1.648-7.692,1.648s7.509,14.193-1.831,24.54
						c-9.34,10.347-18.68-6.593-4.304-23.167"/>
					<path style="fill:none;stroke:#0B1011;stroke-width:2;stroke-linecap:round;stroke-linejoin:round;stroke-miterlimit:10;" d="
						M176.535,163.938c-13.548,14.98-11.428,25.886-7.587,32.2c3.221,5.293,10.11,7.211,15.41,4.002
						c12.443-7.533,13.793-30.675,9.117-34.371c-5.677-4.487-7.692,1.648-7.692,1.648s7.509,14.193-1.831,24.54
						c-9.34,10.347-18.68-6.593-4.304-23.167"/>
				</g>
				<g>
					<path style="fill:#F7BE27;" d="M165.536,140.043c-18.248,8.659-20.165,19.358-19.031,26.661
						c0.951,6.122,6.583,10.53,12.707,9.592c14.378-2.201,24.477-23.066,21.57-28.27c-3.529-6.317-7.737-1.419-7.737-1.419
						s1.509,15.986-11.079,21.973c-12.587,5.988-14.637-13.294,4.985-23.109"/>
					<path style="fill:none;stroke:#0B1011;stroke-width:2;stroke-linecap:round;stroke-linejoin:round;stroke-miterlimit:10;" d="
						M165.831,139.854c-18.248,8.659-20.461,19.546-19.326,26.849c0.951,6.122,6.583,10.53,12.707,9.592
						c14.378-2.201,24.477-23.066,21.57-28.27c-3.529-6.317-7.737-1.419-7.737-1.419s1.509,15.986-11.079,21.973
						c-12.587,5.988-14.737-13.237,4.885-23.051"/>
				</g>
				<g>
					<path style="fill:#D8DAD9;" d="M366.494,111.754c20.081,2.177,25.409,11.65,26.739,18.92
						c1.115,6.095-2.754,12.109-8.847,13.238c-14.302,2.649-30.701-13.735-29.666-19.605c1.256-7.126,6.84-3.884,6.84-3.884
						s3.832,15.593,17.688,17.109c13.856,1.516,9.452-17.368-12.307-20.184"/>
					<path style="fill:none;stroke:#0B1011;stroke-width:2;stroke-linecap:round;stroke-linejoin:round;stroke-miterlimit:10;" d="
						M366.153,111.673c20.081,2.177,25.75,11.731,27.08,19.001c1.115,6.095-2.754,12.109-8.847,13.238
						c-14.302,2.649-30.701-13.735-29.666-19.605c1.256-7.126,6.84-3.884,6.84-3.884s3.832,15.593,17.688,17.109
						c13.856,1.516,9.566-17.346-12.193-20.163"/>
				</g>
				<g>
					<polygon style="fill:#F7BE27;" points="219.411,211.919 219.411,222.009 208.36,222.009 208.36,243.309 198.26,243.309 
						198.26,222.009 187.21,222.009 187.21,211.919 198.26,211.919 198.26,208.109 208.36,208.109 208.36,211.919 					"/>
					
						<polygon style="fill:none;stroke:#0B1011;stroke-width:2;stroke-linecap:round;stroke-linejoin:round;stroke-miterlimit:10;" points="
						219.411,211.919 219.411,222.009 208.36,222.009 208.36,243.309 198.26,243.309 198.26,222.009 187.21,222.009 187.21,211.919 
						198.26,211.919 198.26,208.109 208.36,208.109 208.36,211.919 					"/>
					<path style="fill:none;stroke:#0B1011;stroke-width:2;stroke-linecap:round;stroke-linejoin:round;stroke-miterlimit:10;" d="
						M199.152,176.748c-0.181-1.291,0.934-2.61,2.237-2.647c0.154-0.004,0.312,0.008,0.451,0.072
						c0.145,0.067,0.259,0.187,0.36,0.312c0.783,0.968,0.927,2.29,1.006,3.532c0.111,1.748,0.159,3.499,0.202,5.251v26.126"/>
				</g>
				<path style="fill:#7BBD53;" d="M315.412,45.707c-7.293-4.026-17.356-5.604-27.617-5.747l0.223-0.136
					c0,0-36.265-19.874-72.704-9.923c-36.439,9.951-34.244,73.902-34.244,73.902c6.915-2.671,13.939-1.829,13.939-1.829
					c13.28-0.219,23.817,9.732,23.817,9.732c10.352-10.013,20.9-16.97,31.184-21.696c0.02-0.003,0.039,0.009,0.058,0.001
					c0.026-0.01,0.035-0.036,0.055-0.053c42.874-19.638,81.094-0.35,81.094-0.35S333.705,55.805,315.412,45.707z"/>
				<g>
					<path style="fill:#D94328;" d="M298.347,81.561l1.317,0.11c0,0,2.305-17.671-11.195-25.793c0,0-22.61-1.427-45.11,9.11
						c0,0-2.873,2.412-1.711,4.169s8.362,20.854,8.362,20.854S277.054,77.829,298.347,81.561z"/>
					<path style="fill:none;stroke:#0B1011;stroke-width:2;stroke-linecap:round;stroke-linejoin:round;stroke-miterlimit:10;" d="
						M185.408,102.085c11.415-35.707,50.561-51.549,63.146-56.378c12.585-4.829,48.293-10.097,66.585,0
						c18.293,10.098,15.805,43.903,15.805,43.903s-58.829-29.707-112.39,22.097c0,0-10.537-9.951-23.817-9.732
						c0,0-7.024-0.841-13.939,1.829c0,0-2.195-63.951,34.244-73.903c36.439-9.951,72.704,9.923,72.704,9.923"/>
					<path style="fill:#0B1011;" d="M331.603,90.415l-4.024,2.927c0,0-11.049-8.268-10.829-8.415
						C316.969,84.781,331.603,90.415,331.603,90.415z"/>
					<g>
						<path style="fill:none;" d="M249.414,61.517"/>
					</g>
					<g>
						<path style="fill:none;" d="M246.116,56.042"/>
					</g>
					<g>
						<path style="fill:#0B1011;" d="M192.165,88.733c5.95,1.363,11.709,3.604,16.999,6.675c2.654,1.521,5.179,3.265,7.574,5.172
							c2.374,1.9,4.726,4.06,6.136,6.923c0.122,0.248,0.02,0.548-0.228,0.669c-0.248,0.122-0.548,0.02-0.669-0.228
							c-0.001-0.001-0.003-0.007-0.004-0.008c-1.258-2.654-3.47-4.772-5.789-6.674c-2.335-1.91-4.802-3.664-7.403-5.201
							c-5.185-3.103-10.853-5.398-16.733-6.827c-0.138-0.033-0.224-0.172-0.191-0.31C191.89,88.787,192.028,88.702,192.165,88.733z"
							/>
					</g>
					<g>
						<path style="fill:#0B1011;" d="M197.615,78.175c3.479-0.226,6.907,0.699,10.069,2.005c3.17,1.326,6.182,3.036,8.941,5.088
							c2.758,2.056,5.282,4.429,7.474,7.087c2.218,2.637,4.066,5.578,5.583,8.676c0.121,0.248,0.019,0.548-0.229,0.669
							c-0.248,0.121-0.548,0.019-0.669-0.229c-0.001-0.001-0.001-0.002-0.001-0.003l-0.005-0.01
							c-1.445-3.039-3.216-5.937-5.358-8.546c-2.116-2.629-4.565-4.988-7.25-7.039c-2.687-2.048-5.629-3.765-8.733-5.107
							c-3.095-1.322-6.426-2.257-9.792-2.077c-0.142,0.008-0.264-0.101-0.271-0.243C197.367,78.305,197.474,78.184,197.615,78.175z"
							/>
					</g>
					<g>
						<path style="fill:#0B1011;" d="M209.635,67.374c1.784,0.064,3.438,0.79,4.93,1.632c1.492,0.861,2.916,1.805,4.323,2.785
							c2.809,1.965,5.427,4.199,7.868,6.607c4.887,4.817,8.945,10.472,12.007,16.627c0.123,0.247,0.022,0.547-0.225,0.67
							c-0.247,0.123-0.547,0.022-0.67-0.225c0-0.001-0.004-0.007-0.004-0.008c-2.939-6.089-6.872-11.714-11.643-16.529
							c-2.383-2.408-4.945-4.647-7.701-6.625c-1.377-0.985-2.788-1.943-4.239-2.803c-1.449-0.841-3.014-1.539-4.664-1.617
							c-0.142-0.006-0.252-0.126-0.246-0.268C209.375,67.479,209.494,67.369,209.635,67.374z"/>
					</g>
					<g>
						<path style="fill:#0B1011;" d="M223.293,57.877c1.827,0.334,3.318,1.471,4.651,2.591c1.332,1.147,2.635,2.329,3.869,3.582
							c2.474,2.499,4.736,5.209,6.757,8.09c4.04,5.765,7.078,12.234,8.958,19.034c0.074,0.266-0.083,0.542-0.349,0.615
							c-0.266,0.074-0.541-0.082-0.615-0.349c0-0.001-0.002-0.008-0.002-0.009c-1.771-6.706-4.69-13.121-8.615-18.861
							c-1.964-2.868-4.169-5.574-6.588-8.075c-1.207-1.254-2.483-2.438-3.788-3.589c-1.302-1.124-2.713-2.204-4.372-2.523
							c-0.14-0.026-0.232-0.161-0.206-0.3C223.02,57.944,223.155,57.853,223.293,57.877z"/>
					</g>
					<g>
						<path style="fill:#0B1011;" d="M286.236,39.988c12.879,9.124,20.301,25.39,18.706,41.186
							c-0.028,0.275-0.273,0.475-0.548,0.447c-0.275-0.028-0.475-0.273-0.447-0.548c0-0.001,0-0.005,0.001-0.006
							c1.726-15.398-5.382-31.524-18.011-40.661c-0.115-0.083-0.141-0.244-0.058-0.359C285.961,39.933,286.12,39.907,286.236,39.988
							z"/>
					</g>
					<g>
						<path style="fill:#0B1011;" d="M301.105,40.999c4.684,5.565,7.68,12.397,9.298,19.447c1.624,7.078,1.906,14.39,1.554,21.603
							c-0.013,0.276-0.248,0.488-0.524,0.475c-0.276-0.013-0.489-0.248-0.475-0.524c0-0.001,0-0.005,0-0.006
							c0.429-7.151,0.229-14.381-1.295-21.384c-1.519-6.974-4.398-13.743-8.955-19.283c-0.09-0.11-0.075-0.272,0.035-0.362
							C300.854,40.876,301.015,40.891,301.105,40.999z"/>
					</g>
					<g>
						<path style="fill:#0B1011;" d="M314.538,45.046c1.993,2.791,2.998,6.12,3.685,9.403c0.663,3.303,1.183,6.617,1.586,9.959
							c0.399,3.339,0.643,6.702,0.676,10.074c0.032,3.371-0.165,6.749-0.632,10.098c-0.038,0.273-0.291,0.464-0.564,0.426
							c-0.273-0.038-0.464-0.291-0.426-0.564c0-0.001,0.001-0.007,0.001-0.008c0.499-3.287,0.734-6.616,0.743-9.949
							c0.007-3.333-0.194-6.67-0.55-9.991c-0.359-3.319-0.839-6.64-1.457-9.917c-0.64-3.256-1.587-6.511-3.482-9.232
							c-0.082-0.117-0.053-0.277,0.063-0.359C314.296,44.904,314.456,44.932,314.538,45.046z"/>
					</g>
					<g>
						<path style="fill:#0B1011;" d="M326.202,59.111c1.485,8.897,1.003,18.132-1.418,26.858c-0.074,0.266-0.349,0.422-0.616,0.348
							c-0.266-0.074-0.422-0.349-0.348-0.615c0.001-0.002,0.002-0.007,0.003-0.009c2.536-8.539,3.185-17.655,1.871-26.502
							c-0.021-0.141,0.076-0.272,0.217-0.293C326.05,58.878,326.179,58.973,326.202,59.111z"/>
					</g>
					<g>
						<path style="fill:#0B1011;" d="M236.703,50.414c2.466,1.419,4.924,2.907,7.141,4.756c2.207,1.842,4.181,4.065,5.455,6.723
							c0.119,0.249,0.014,0.548-0.234,0.667c-0.249,0.119-0.548,0.014-0.667-0.235c-0.002-0.004-0.005-0.01-0.006-0.013
							c-1.12-2.522-2.943-4.715-5.04-6.567c-2.106-1.861-4.492-3.404-6.911-4.888c-0.121-0.074-0.159-0.233-0.085-0.354
							C236.429,50.383,236.583,50.345,236.703,50.414z"/>
					</g>
					<g>
						<path style="fill:#0B1011;" d="M251.708,43.915c5.145,3.448,9.298,8.39,11.816,14.099c0.112,0.253-0.003,0.548-0.255,0.659
							c-0.253,0.112-0.548-0.003-0.659-0.256c-0.001-0.003-0.004-0.009-0.005-0.012c-2.293-5.595-6.217-10.543-11.188-14.067
							c-0.116-0.082-0.143-0.243-0.061-0.359C251.435,43.866,251.592,43.838,251.708,43.915z"/>
					</g>
					<g>
						<path style="fill:#0B1011;" d="M266.566,41.195c4.635,3.89,8.218,9.05,10.247,14.798c0.092,0.26-0.044,0.546-0.305,0.638
							c-0.26,0.092-0.546-0.044-0.638-0.305c-0.001-0.004-0.003-0.01-0.004-0.013c-1.817-5.628-5.176-10.777-9.635-14.728
							c-0.107-0.094-0.116-0.257-0.022-0.363C266.3,41.117,266.46,41.106,266.566,41.195z"/>
					</g>
					<g>
						<path style="fill:#0B1011;" d="M277.51,40.12c1.246,0.996,2.363,2.123,3.462,3.254c1.097,1.138,2.155,2.32,3.136,3.572
							c1.951,2.497,3.589,5.355,4.274,8.546c0.058,0.27-0.114,0.536-0.384,0.594c-0.27,0.058-0.536-0.114-0.594-0.384
							c-0.001-0.003-0.002-0.01-0.003-0.014c-0.563-3.005-2.051-5.793-3.897-8.284c-0.927-1.248-1.94-2.44-2.996-3.594
							c-1.063-1.151-2.138-2.291-3.325-3.291c-0.109-0.091-0.123-0.254-0.032-0.363C277.242,40.048,277.401,40.033,277.51,40.12z"/>
					</g>
					<g>
						<path style="fill:#0B1011;" d="M216.512,32.228c15.586-2.555,32.055,0.585,45.649,8.741c0.237,0.142,0.314,0.449,0.172,0.686
							c-0.142,0.237-0.449,0.314-0.686,0.171l-0.004-0.003c-13.301-8.17-29.562-11.464-45.049-9.087
							c-0.141,0.021-0.272-0.075-0.294-0.215C216.278,32.382,216.373,32.251,216.512,32.228z"/>
					</g>
					<g>
						<path style="fill:#0B1011;" d="M249.223,89.96l-4.72-11.915l-2.36-5.957l-1.183-2.994c-0.1-0.273-0.199-0.586-0.225-0.949
							c-0.029-0.367,0.056-0.763,0.197-1.072c0.29-0.639,0.687-1.034,1.055-1.464c1.557-1.678,3.572-2.768,5.589-3.583
							c2.037-0.812,4.088-1.412,6.146-2.03c4.119-1.217,8.304-2.213,12.525-3.013c4.223-0.797,8.486-1.379,12.769-1.755
							c2.142-0.176,4.288-0.324,6.437-0.396c1.055-0.035,2.204-0.124,3.436,0.187c1.272,0.317,2.273,1.151,3.057,1.915
							c6.333,6.165,9.667,15.223,8.814,24.057c-0.053,0.55-0.542,0.952-1.091,0.899c-0.55-0.053-0.952-0.542-0.899-1.091
							l0.001-0.011c0.881-8.194-2.171-16.776-8.052-22.597c-0.727-0.72-1.448-1.294-2.273-1.503
							c-0.848-0.232-1.868-0.194-2.938-0.16c-2.121,0.051-4.24,0.177-6.357,0.33c-4.232,0.331-8.449,0.866-12.63,1.614
							c-4.18,0.751-8.327,1.696-12.412,2.862c-2.038,0.59-4.098,1.175-6.038,1.929c-1.934,0.759-3.775,1.753-5.153,3.212
							c-0.33,0.37-0.688,0.76-0.836,1.105c-0.157,0.337-0.123,0.607,0.046,1.09l1.144,2.976l2.304,5.98l4.607,11.959
							c0.102,0.265-0.03,0.563-0.296,0.665C249.623,90.353,249.327,90.222,249.223,89.96z"/>
					</g>
				</g>
			</g>
		</g>
	</g>
</g>
</svg>
