<?xml version="1.0" standalone="no"?>
<!DOCTYPE svg PUBLIC "-//W3C//DTD SVG 20010904//EN"
 "http://www.w3.org/TR/2001/REC-SVG-20010904/DTD/svg10.dtd">
<svg version="1.0" xmlns="http://www.w3.org/2000/svg"
 width="300.000000pt" height="163.000000pt" viewBox="0 0 300.000000 163.000000"
 preserveAspectRatio="xMidYMid meet">
<metadata>
Created by potrace 1.10, written by Peter Selinger 2001-2011
</metadata>
<g transform="translate(0.000000,163.000000) scale(0.100000,-0.100000)"
fill="#000000" stroke="none">
<path d="M1909 1606 c-121 -50 -194 -93 -272 -161 -115 -101 -150 -149 -244
-337 -8 -15 -14 -30 -14 -33 -2 -16 -12 -45 -17 -45 -2 0 -17 13 -33 29 -48
50 -111 57 -180 20 -13 -7 -44 -12 -69 -10 -25 1 -81 -3 -124 -9 -87 -11 -126
-35 -126 -77 0 -13 -2 -23 -4 -23 -2 0 -20 -7 -39 -15 l-36 -15 1 51 c0 80
-14 89 -137 89 -66 0 -105 -4 -113 -12 -10 -10 -17 -10 -32 0 -13 8 -61 12
-133 12 -106 0 -115 -2 -135 -23 -28 -29 -29 -82 -2 -122 17 -26 20 -47 20
-171 0 -126 -2 -142 -20 -161 -17 -18 -27 -21 -72 -16 -72 7 -128 -17 -128
-53 0 -24 1 -24 17 -9 47 47 137 43 179 -8 l26 -32 -5 48 c-4 40 -2 47 13 47
10 0 20 6 22 13 4 10 2 335 -1 358 -1 4 -9 6 -18 5 -15 -1 -18 7 -18 44 l0 45
116 3 116 3 26 -40 c22 -33 24 -42 12 -48 -12 -7 -7 -19 23 -66 20 -31 39 -57
42 -57 3 0 3 25 2 55 -3 46 -7 55 -23 55 -16 0 -19 7 -19 50 l0 50 105 0 105
0 0 -44 c0 -36 -4 -46 -20 -51 -18 -6 -20 -15 -20 -78 l0 -72 23 40 c29 51 87
84 152 86 28 1 42 3 33 6 -13 3 -18 15 -18 39 0 19 -1 37 -2 42 -2 4 42 12 97
19 160 18 145 23 145 -52 0 -50 3 -65 14 -65 11 0 13 7 7 28 -36 129 157 188
198 59 6 -17 10 -39 9 -47 -1 -8 0 -97 0 -197 2 -176 3 -183 22 -183 30 0 29
-75 -1 -90 -38 -21 -11 -22 29 -1 l40 20 -25 78 c-37 114 -43 294 -14 415 73
307 318 549 621 613 104 22 279 20 376 -5 314 -80 564 -350 603 -652 l8 -63 2
88 c1 58 -4 98 -13 115 -7 15 -25 54 -40 86 -38 82 -102 169 -178 241 -95 91
-183 146 -308 191 -61 23 -78 24 -280 23 -199 -1 -219 -2 -271 -23z"/>
<path d="M2050 1555 c-307 -51 -564 -310 -615 -620 -19 -109 -16 -185 11 -307
28 -123 28 -128 10 -128 -9 0 -16 -4 -16 -9 0 -6 16 -7 35 -4 23 4 43 0 59
-10 21 -14 26 -14 36 -2 7 8 23 15 36 15 13 0 24 5 24 10 0 6 -31 10 -72 10
l-73 0 -2 41 c-2 34 1 42 17 46 19 5 20 14 20 189 0 177 -1 184 -20 184 -17 0
-20 7 -20 45 l0 45 145 0 145 0 0 -44 c0 -35 -4 -45 -20 -49 -17 -4 -20 -14
-20 -58 l0 -53 28 26 c33 31 61 46 115 62 37 10 41 15 44 46 2 31 1 32 -7 12
-5 -13 -17 -31 -27 -40 -15 -16 -16 -10 -10 90 5 93 10 114 33 154 15 26 47
61 71 77 24 17 43 38 43 47 0 9 6 25 14 35 11 16 30 19 142 21 119 3 131 2
161 -19 18 -12 33 -25 33 -28 0 -4 18 -26 40 -49 22 -23 37 -46 34 -51 -3 -5
0 -9 6 -9 6 0 9 -4 6 -9 -3 -5 4 -11 16 -14 12 -4 25 -2 28 4 5 6 16 6 34 -1
24 -9 27 -14 21 -40 -5 -24 -3 -30 9 -30 19 0 36 -39 36 -82 0 -44 -69 -119
-96 -105 -35 18 -66 58 -61 77 3 11 -1 21 -10 24 -21 8 -21 9 -15 -19 5 -26
-12 -35 -21 -11 -3 7 -32 28 -64 46 -52 29 -67 33 -143 34 -126 2 -245 -39
-254 -88 -3 -11 -7 -33 -11 -48 -5 -25 -2 -28 20 -28 14 0 44 10 65 23 30 17
40 28 40 48 0 26 1 26 113 38 62 6 118 11 125 11 8 0 10 -17 5 -61 l-6 -60 37
6 c28 6 48 2 91 -20 30 -14 60 -36 66 -47 11 -20 11 -20 37 5 124 115 321 62
368 -99 61 -211 -200 -370 -363 -222 l-22 21 -30 -26 c-51 -43 -95 -52 -244
-52 -119 0 -136 -2 -130 -15 4 -8 8 -37 8 -63 0 -42 -5 -53 -32 -77 -36 -32
-125 -55 -185 -47 -57 8 -109 38 -131 78 l-19 34 6 -30 c14 -64 19 -60 -87
-61 -54 -1 -101 -4 -104 -8 -4 -3 6 -6 21 -6 20 0 45 -15 85 -52 392 -359
1012 -235 1225 245 45 102 61 183 60 307 -2 207 -67 370 -203 513 -87 91 -160
142 -266 186 -135 57 -274 72 -425 46z m300 -29 c30 -8 64 -17 75 -21 25 -8
148 -68 155 -75 3 -3 21 -17 40 -31 19 -15 49 -39 65 -53 17 -14 33 -26 38
-26 4 0 7 -5 7 -10 0 -6 9 -21 21 -33 71 -74 150 -249 164 -362 10 -77 0 -83
-48 -29 -52 59 -127 94 -202 94 -41 0 -55 4 -55 14 0 8 5 18 11 22 19 11 2 89
-31 147 -28 50 -61 77 -95 77 -7 0 -22 15 -34 33 -30 49 -102 114 -144 132
-32 13 -60 15 -158 9 -118 -7 -120 -7 -142 -37 -12 -16 -47 -55 -78 -87 -76
-78 -92 -116 -97 -225 -4 -82 -12 -104 -34 -105 -5 0 -8 22 -8 48 0 73 -12 80
-150 83 -142 3 -142 3 -127 37 34 79 128 196 206 254 31 24 58 46 61 49 9 10
134 67 170 77 19 6 49 15 65 20 45 15 262 13 325 -2z m-344 -511 c-18 -27 -46
-34 -46 -10 0 14 51 48 59 39 2 -2 -4 -15 -13 -29z m388 -10 c45 -27 34 -39
-24 -27 -27 6 -35 13 -36 30 -2 28 11 27 60 -3z m-913 -82 c1 -10 2 -27 4 -38
1 -11 -1 -69 -4 -130 -6 -106 -7 -108 -19 -70 -12 42 -16 193 -6 233 7 26 23
29 25 5z m1374 -420 c-16 -38 -70 -124 -103 -164 -79 -96 -224 -195 -334 -228
-21 -6 -53 -15 -71 -21 -18 -5 -92 -10 -163 -10 -137 0 -217 18 -324 70 -67
33 -170 109 -170 126 0 7 3 13 8 12 4 -1 24 1 45 6 27 5 51 2 83 -10 65 -25
177 -16 237 19 48 29 77 75 77 126 0 38 6 39 155 43 99 3 115 6 158 31 l47 28
45 -27 c83 -48 192 -43 275 12 47 32 53 30 35 -13z"/>
<path d="M2197 1373 c-4 -3 -7 -18 -8 -32 l-1 -26 -14 30 -15 30 4 -27 c4 -27
3 -28 -42 -28 -33 0 -42 -3 -31 -10 10 -7 11 -10 2 -10 -7 0 -15 7 -18 15 -5
11 -11 12 -25 4 -11 -5 -17 -14 -14 -20 4 -5 -6 -14 -21 -19 -15 -6 -25 -12
-22 -15 2 -2 24 3 48 12 64 23 219 23 254 0 28 -19 35 -47 12 -47 -7 0 -29 -2
-47 -5 l-34 -6 30 15 30 16 -33 -6 c-43 -8 -129 -7 -142 1 -6 3 -10 1 -10 -4
0 -6 6 -11 13 -11 9 0 8 -3 -2 -9 -8 -5 8 -9 45 -9 75 0 140 -10 181 -27 32
-14 33 -13 48 15 9 17 20 42 25 57 9 23 8 25 -2 11 -7 -9 -21 -31 -31 -49 -10
-17 -20 -29 -24 -26 -3 4 -1 12 5 19 11 15 35 94 24 83 -4 -3 -12 -21 -18 -38
-6 -18 -19 -34 -30 -36 -18 -3 -18 -2 -2 15 20 23 40 94 27 94 -5 0 -12 -7
-14 -15 -17 -52 -14 -50 -36 -28 -18 17 -19 23 -9 40 10 16 10 24 1 39 -9 13
-11 14 -7 3 5 -17 -27 -59 -44 -59 -13 0 -21 34 -14 56 5 16 4 16 -5 4 -6 -8
-11 -23 -11 -33 0 -10 -5 -15 -11 -11 -6 3 -8 17 -5 30 7 25 4 29 -7 17z"/>
<path d="M2401 1195 c-13 -31 -21 -58 -18 -61 3 -4 15 13 25 37 27 60 33 79
24 79 -4 0 -18 -25 -31 -55z"/>
<path d="M2004 1220 c1 -13 -6 -25 -14 -27 -12 -4 -13 -3 -1 5 7 5 10 15 6 21
-5 9 -10 9 -21 0 -10 -8 -11 -15 -4 -24 8 -9 6 -14 -5 -19 -9 -3 -13 -2 -10 3
3 5 1 12 -5 16 -9 6 -14 -8 -11 -28 1 -5 -3 -6 -8 -2 -6 3 -15 -4 -21 -15 -14
-27 -11 -26 57 15 32 19 67 35 78 35 14 0 21 7 22 23 2 22 2 22 -13 2 -18 -25
-20 -25 -37 -1 -13 18 -14 18 -13 -4z"/>
<path d="M2427 1171 c-9 -16 -17 -37 -17 -48 1 -11 9 -3 21 22 23 47 21 68 -4
26z"/>
<path d="M2470 1188 c0 -8 -12 -37 -27 -63 -26 -47 -26 -48 -7 -62 10 -8 18
-21 16 -29 -2 -8 4 -14 11 -14 8 0 17 -10 21 -22 4 -16 8 -20 16 -12 11 11 3
47 -9 40 -4 -3 -12 8 -18 24 -8 22 -8 35 3 55 8 15 12 31 9 35 -3 4 4 10 15
13 12 3 18 13 17 25 -1 14 -5 18 -12 12 -7 -6 -16 -5 -23 2 -9 9 -12 8 -12 -4z"/>
<path d="M2037 1154 c-63 -23 -123 -62 -135 -89 -17 -37 -15 -53 3 -27 21 29
92 76 138 91 88 29 260 7 330 -41 21 -15 27 -16 27 -5 0 20 -16 32 -80 57 -69
27 -225 35 -283 14z"/>
<path d="M2520 1109 c0 -5 7 -9 15 -9 8 0 15 -4 15 -10 0 -5 8 -10 18 -10 13
0 14 2 3 9 -7 5 -11 13 -8 17 3 5 -6 10 -19 10 -13 1 -24 -2 -24 -7z"/>
<path d="M1185 1005 c-14 -13 -25 -31 -25 -40 0 -22 45 -65 67 -65 35 0 63 29
63 65 0 61 -61 85 -105 40z m68 -23 c14 -16 14 -19 -2 -41 l-18 -23 -21 23
c-20 21 -21 24 -5 41 20 22 26 22 46 0z"/>
<path d="M1520 1010 c0 -3 9 -11 20 -18 19 -11 20 -23 20 -212 0 -194 -1 -199
-22 -214 -21 -15 -15 -16 87 -16 102 0 108 1 87 16 -21 15 -22 20 -22 214 0
189 1 201 20 212 11 7 20 15 20 18 0 3 -47 5 -105 5 -58 0 -105 -2 -105 -5z
m135 -30 c11 -18 13 -384 2 -397 -5 -7 -20 -13 -33 -13 -12 0 -26 6 -31 13
-12 18 -10 391 2 399 15 11 53 10 60 -2z"/>
<path d="M2170 1006 c-41 -4 -77 -10 -79 -12 -3 -2 4 -11 15 -18 18 -13 19
-28 19 -206 0 -171 -2 -193 -17 -204 -10 -7 -18 -15 -18 -17 0 -2 69 -2 153 1
123 4 158 8 180 23 33 21 53 52 62 92 l7 30 -26 -30 c-14 -16 -25 -35 -26 -41
0 -6 -11 -17 -25 -24 -35 -19 -48 -4 -35 40 13 46 13 121 -1 176 -6 25 -9 48
-5 51 8 9 84 -65 92 -89 9 -30 23 -20 15 10 -12 42 -30 66 -65 90 -38 26 -111
30 -143 7 -22 -15 -22 -15 -25 57 l-3 73 -75 -9z m57 -81 c1 -27 3 -57 3 -65
0 -8 -1 -77 -1 -153 l-1 -138 -36 3 -37 3 -3 190 c-1 104 0 195 3 203 3 8 17
12 37 10 30 -3 31 -5 35 -53z m117 -88 c18 -24 21 -43 21 -117 0 -74 -3 -93
-21 -117 -23 -31 -57 -41 -80 -23 -11 10 -14 42 -14 145 0 119 2 134 18 138
33 9 55 2 76 -26z"/>
<path d="M2290 722 c0 -67 4 -112 10 -112 15 0 25 48 25 122 0 51 -4 72 -18
85 -16 16 -17 12 -17 -95z"/>
<path d="M260 993 c0 -2 9 -12 20 -23 19 -19 20 -33 20 -210 0 -177 -1 -191
-20 -210 -11 -11 -20 -22 -20 -25 0 -3 27 -5 60 -5 63 0 71 5 43 26 -16 11
-19 37 -24 186 -3 95 -9 185 -14 200 -6 21 -3 27 14 33 31 9 58 -2 65 -28 3
-12 30 -59 61 -105 30 -45 55 -84 55 -86 0 -9 61 -68 66 -64 2 3 -34 64 -82
136 -65 99 -85 137 -81 154 6 23 4 23 -78 23 -47 0 -85 -1 -85 -2z"/>
<path d="M554 991 c-2 -2 5 -10 15 -17 16 -12 20 -32 25 -146 3 -73 9 -159 12
-190 10 -95 -6 -83 -119 89 -84 128 -125 178 -136 168 -2 -3 51 -88 120 -190
99 -147 129 -184 147 -185 l22 0 0 220 c0 209 1 220 20 232 11 7 20 15 20 18
0 7 -119 7 -126 1z"/>
<path d="M1025 988 c-22 -4 -57 -7 -77 -7 -41 -1 -47 -7 -22 -26 9 -6 18 -32
21 -59 l6 -48 -31 16 c-72 37 -161 5 -198 -71 -26 -53 -25 -147 1 -192 34 -58
81 -75 227 -79 70 -3 135 -2 144 2 14 5 13 8 -5 24 -20 16 -21 27 -23 232 l-3
215 -40 -7z m17 -40 c10 -27 6 -373 -4 -385 -6 -7 -23 -13 -39 -13 l-28 0 -3
150 c-2 83 -1 175 0 205 4 55 4 55 37 55 18 0 35 -6 37 -12z m-118 -108 c26
-9 26 -10 26 -127 0 -65 -3 -128 -6 -140 -15 -54 -85 -30 -105 36 -6 21 -10
73 -7 116 3 70 6 79 31 101 32 28 28 27 61 14z m-100 -19 c-14 -34 -19 -162
-8 -201 9 -30 9 -42 0 -49 -15 -12 -63 29 -77 66 -30 79 17 200 77 200 10 0
13 -6 8 -16z"/>
<path d="M880 786 c-19 -51 -8 -185 16 -193 11 -4 11 203 0 214 -3 3 -10 -6
-16 -21z"/>
<path d="M2013 911 c-18 -17 -30 -20 -67 -15 -65 9 -112 -3 -153 -39 -78 -69
-85 -172 -15 -249 l24 -26 -21 -21 c-26 -26 -26 -36 -2 -60 13 -13 41 -21 88
-26 76 -8 93 -17 93 -49 0 -30 -18 -46 -51 -46 -37 0 -62 26 -54 57 5 22 3 24
-17 18 -100 -31 -42 -105 82 -105 106 0 160 40 144 106 -11 42 -49 58 -148 64
-77 4 -91 8 -94 23 -3 16 2 17 47 11 70 -9 116 2 158 39 80 71 85 187 9 256
l-26 25 25 10 c23 10 24 13 13 29 -13 17 -14 17 -35 -2z m-59 -54 c18 -24 21
-42 21 -125 0 -112 -18 -162 -59 -162 -33 0 -44 18 -57 86 -14 77 -4 176 23
209 25 31 44 29 72 -8z m-120 -135 c-2 -155 -1 -149 -23 -121 -51 67 -64 134
-36 189 13 25 39 49 55 50 3 0 4 -53 4 -118z m214 67 c8 -14 11 -46 9 -78 -3
-42 -9 -57 -28 -72 -13 -10 -26 -19 -29 -19 -3 0 -5 49 -5 110 0 107 0 109 20
96 11 -7 26 -24 33 -37z m-33 -313 c0 0 6 -11 13 -24 11 -19 11 -27 0 -40 -34
-44 -48 -41 -48 7 0 22 -5 43 -10 46 -18 11 1 26 23 19 12 -3 22 -7 22 -8z"/>
<path d="M1904 829 c-11 -34 -8 -199 4 -211 18 -18 24 10 24 107 0 101 -13
149 -28 104z"/>
<path d="M2595 884 c-40 -21 -64 -43 -81 -76 -26 -50 -14 -53 26 -8 28 33 40
41 44 30 10 -31 12 -220 2 -220 -6 0 -28 19 -48 41 -40 43 -49 39 -23 -11 49
-94 189 -119 271 -48 47 41 64 77 64 134 0 97 -78 174 -176 174 -27 0 -62 -7
-79 -16z m104 -11 c42 -35 51 -205 15 -275 -19 -37 -57 -38 -81 -1 -14 21 -18
48 -18 117 0 100 7 137 31 160 20 20 27 20 53 -1z m115 -93 c21 -53 20 -62 -8
-119 -41 -80 -53 -65 -50 63 1 61 3 112 3 114 1 1 9 -2 20 -7 10 -6 26 -29 35
-51z"/>
<path d="M2663 825 c-4 -11 -8 -56 -8 -100 0 -44 4 -89 8 -100 15 -37 27 6 27
100 0 94 -12 137 -27 100z"/>
<path d="M1162 873 c-32 -4 -32 -5 -12 -21 19 -16 21 -26 18 -157 -4 -172 -2
-175 102 -175 73 0 84 6 50 28 -19 11 -20 23 -20 172 l0 160 -52 -2 c-29 0
-68 -3 -86 -5z m102 -29 c3 -9 6 -78 6 -155 0 -138 0 -139 -22 -139 -49 0 -52
11 -55 146 -1 70 3 136 8 146 12 22 55 24 63 2z"/>
<path d="M1110 695 c0 -77 4 -125 10 -125 6 0 10 48 10 125 0 77 -4 125 -10
125 -6 0 -10 -48 -10 -125z"/>
<path d="M380 671 c0 -84 2 -93 20 -98 16 -4 20 -14 20 -49 0 -27 -5 -44 -12
-44 -6 0 -8 -3 -5 -6 4 -4 18 1 33 11 18 11 29 14 36 7 6 -6 26 -8 44 -5 25 4
40 1 54 -12 14 -13 24 -15 31 -8 7 7 3 12 -13 16 -16 4 -50 46 -108 134 -46
70 -88 132 -92 138 -4 5 -8 -33 -8 -84z"/>
<path d="M2992 684 c-3 -60 -38 -167 -83 -255 -109 -211 -325 -372 -560 -418
-43 -9 -43 -9 24 -10 60 -1 78 4 155 40 190 89 345 241 423 414 12 28 28 64
36 80 10 21 13 55 11 110 -2 44 -5 61 -6 39z"/>
<path d="M680 557 c0 -30 3 -34 20 -30 11 3 20 7 20 10 0 3 -9 16 -20 30 l-20
26 0 -36z"/>
<path d="M718 520 c-36 -14 -50 -30 -28 -30 6 0 10 -9 10 -20 0 -20 -1 -20
-25 -4 -23 15 -27 15 -50 0 -31 -21 -41 -57 -23 -93 14 -31 59 -43 83 -23 9 7
15 8 20 0 3 -5 22 -10 42 -10 28 0 33 3 25 13 -6 7 -12 51 -14 98 l-3 85 -37
-16z m21 -101 c-3 -67 -19 -62 -18 6 1 30 6 52 11 49 5 -3 8 -28 7 -55z m-51
19 c7 -7 12 -25 12 -40 0 -37 -27 -37 -41 -1 -16 42 2 68 29 41z"/>
<path d="M1128 522 c-35 -14 -51 -32 -28 -32 14 0 13 -123 -2 -138 -9 -9 0
-12 41 -12 43 0 51 3 43 13 -6 7 -12 51 -14 98 l-3 85 -37 -14z m19 -79 c0
-21 1 -47 4 -58 2 -11 -1 -21 -6 -22 -10 -3 -17 94 -8 110 8 14 10 7 10 -30z"/>
<path d="M1676 519 c-21 -9 -34 -19 -28 -22 12 -8 14 -127 2 -127 -13 0 -30
34 -30 59 0 12 7 21 15 21 22 0 18 17 -4 23 -37 9 -66 -15 -69 -58 -5 -64 46
-105 84 -68 12 13 19 14 22 5 2 -6 20 -12 39 -12 28 0 33 3 25 13 -6 7 -12 51
-14 98 l-3 86 -39 -18z"/>
<path d="M48 514 c-53 -28 -33 -73 47 -111 46 -21 56 -56 18 -61 -17 -3 -28 6
-44 33 -14 23 -27 34 -36 31 -8 -3 -17 -6 -19 -6 -2 0 -4 -7 -4 -15 0 -22 60
-55 100 -55 57 0 85 20 85 59 0 29 -6 36 -44 57 -55 29 -76 49 -67 63 13 20
45 11 58 -16 16 -34 48 -43 48 -14 0 43 -88 65 -142 35z m37 -55 c9 -17 21
-27 27 -23 7 5 8 3 4 -5 -6 -9 -12 -9 -24 3 -10 8 -21 15 -26 15 -6 0 -11 12
-13 27 -5 32 11 24 32 -17z"/>
<path d="M231 464 c-25 -11 -31 -18 -22 -27 6 -6 11 -25 11 -42 0 -39 16 -55
55 -55 17 0 36 5 43 12 9 9 12 9 12 0 0 -8 26 -12 86 -12 74 0 85 2 75 14 -17
21 -10 91 9 91 11 0 16 -14 20 -50 l5 -50 40 -3 c32 -3 38 -1 28 9 -7 7 -13
31 -13 54 0 23 -5 46 -12 53 -14 14 -57 16 -78 2 -10 -6 -17 -5 -20 4 -4 10
-11 10 -38 -1 -28 -11 -31 -16 -22 -32 13 -25 13 -52 0 -71 -16 -25 -31 7 -28
62 1 26 -1 50 -4 53 -3 3 -22 -2 -43 -12 -35 -17 -37 -17 -46 0 -12 20 -13 20
-58 1z m36 -52 c-9 -10 -14 -22 -10 -27 5 -4 2 -5 -4 -1 -15 9 -17 36 -3 36 6
0 10 8 10 17 0 13 3 14 12 5 9 -9 8 -16 -5 -30z m53 -7 c0 -23 -6 -38 -15 -42
-24 -9 -28 2 -15 41 15 46 30 46 30 1z"/>
<path d="M808 465 c-15 -8 -29 -24 -33 -34 -9 -28 4 -70 25 -81 31 -17 95 -12
113 8 24 27 21 32 -13 19 -22 -8 -33 -8 -41 0 -8 8 -2 13 21 18 20 4 34 15 37
26 3 10 9 19 14 19 15 0 23 -52 10 -71 -17 -28 -15 -29 33 -29 44 0 44 0 34
28 -8 20 -7 36 5 65 18 42 37 50 29 12 -4 -21 -1 -25 21 -25 28 0 43 26 26 46
-14 17 -51 18 -67 2 -10 -10 -14 -10 -21 0 -6 10 -14 9 -38 -3 -27 -14 -34
-14 -59 0 -36 18 -61 18 -96 0z m57 -31 c0 -19 -6 -30 -17 -32 -14 -3 -18 3
-18 26 0 16 3 32 7 36 14 13 28 -1 28 -30z m125 -39 c0 -19 -4 -35 -10 -35 -5
0 -10 16 -10 35 0 19 5 35 10 35 6 0 10 -16 10 -35z m-161 -12 c13 -26 5 -29
-24 -7 -17 12 -18 16 -5 24 8 5 15 8 16 7 1 -1 7 -12 13 -24z"/>
<path d="M1214 466 c-15 -12 -16 -17 -7 -27 10 -10 16 -9 31 4 21 19 42 22 42
7 0 -6 -20 -19 -44 -30 -47 -20 -58 -35 -44 -62 6 -12 20 -18 43 -18 39 0 43
7 18 25 -17 12 -17 14 1 34 28 30 36 26 36 -19 l0 -40 86 0 c74 0 85 2 75 14
-18 22 -10 90 11 94 14 3 17 -6 20 -50 l3 -53 40 -3 c32 -3 38 -1 28 9 -7 7
-13 31 -13 54 0 23 -5 46 -12 53 -15 15 -60 16 -76 0 -9 -9 -13 -8 -17 4 -5
13 -10 13 -40 0 -25 -12 -32 -19 -24 -28 13 -15 8 -79 -6 -79 -5 0 -13 20 -17
45 -5 27 -16 52 -29 63 -26 21 -78 22 -105 3z"/>
<path d="M1020 399 c0 -14 5 -30 11 -36 7 -7 9 -19 6 -28 -6 -15 -21 -16 -187
-15 -14 0 -61 0 -105 -1 -44 0 -87 0 -95 0 -159 3 -371 1 -378 -3 -5 -3 -21 1
-35 9 -23 12 -32 12 -62 -1 -47 -19 -94 -18 -138 5 l-37 19 0 -22 c0 -29 70
-50 137 -42 27 3 57 6 68 6 11 0 198 -1 415 -2 267 -1 402 2 415 10 15 7 26 7
40 -1 13 -7 93 -11 231 -12 l211 0 75 -71 c93 -88 143 -123 251 -174 75 -35
94 -40 154 -39 l68 1 -70 14 c-147 31 -366 166 -435 268 -28 40 -17 38 -195
36 -268 -3 -301 1 -290 28 19 45 18 52 -7 52 -13 0 -29 5 -36 12 -9 9 -12 6
-12 -13z"/>
</g>
</svg>
